<?xml version="1.0" encoding="UTF-8" standalone="no"?>
<!-- Created with Inkscape (http://www.inkscape.org/) -->

<svg
   version="1.1"
   id="svg1"
   width="1482.6188"
   height="122.56823"
   viewBox="0 0 1482.6188 122.56823"
   xmlns="http://www.w3.org/2000/svg"
   xmlns:svg="http://www.w3.org/2000/svg">
  <defs
     id="defs1" />
  <g
     id="g1"
     transform="translate(-52.047889,-130.66666)">
    <path
       style="fill:#6ea7d5"
       d="m 1281.7154,156.34654 c 4.2434,-0.2654 10.8434,-0.26294 14.6666,0.005 3.8232,0.26841 0.3513,0.48555 -7.7153,0.48254 -8.0667,-0.003 -11.1948,-0.22261 -6.9513,-0.48801 z"
       id="path59" />
    <path
       style="fill:#6ea7d5"
       d="m 649.71535,156.34654 c 4.24344,-0.2654 10.84344,-0.26294 14.66667,0.005 3.82322,0.26841 0.35131,0.48555 -7.71535,0.48254 -8.06667,-0.003 -11.19476,-0.22261 -6.95132,-0.48801 z"
       id="path58" />
    <path
       style="fill:#6ea7d5"
       d="m 1446.4167,161.75582 c 0.9625,-0.38516 2.1125,-0.33779 2.5555,0.10527 0.4431,0.44305 -0.3444,0.75818 -1.75,0.70029 -1.5532,-0.064 -1.8692,-0.37992 -0.8055,-0.80556 z"
       id="path57" />
    <path
       style="fill:#6ea7d5"
       d="m 1434.3333,161.78362 c 0.9167,-0.36988 2.4167,-0.36988 3.3334,0 0.9166,0.36988 0.1666,0.67252 -1.6667,0.67252 -1.8333,0 -2.5833,-0.30264 -1.6667,-0.67252 z"
       id="path56" />
    <path
       style="fill:#6ea7d5"
       d="m 1194.4167,161.75582 c 0.9625,-0.38516 2.1125,-0.33779 2.5555,0.10527 0.4431,0.44305 -0.3444,0.75818 -1.75,0.70029 -1.5532,-0.064 -1.8692,-0.37992 -0.8055,-0.80556 z"
       id="path55" />
    <path
       style="fill:#6ea7d5"
       d="m 1106.4167,161.75582 c 0.9625,-0.38516 2.1125,-0.33779 2.5555,0.10527 0.4431,0.44305 -0.3444,0.75818 -1.75,0.70029 -1.5532,-0.064 -1.8692,-0.37992 -0.8055,-0.80556 z"
       id="path54" />
    <path
       style="fill:#6ea7d5"
       d="m 991.66667,161.78362 c 0.91666,-0.36988 2.41666,-0.36988 3.33333,0 0.91667,0.36988 0.16667,0.67252 -1.66667,0.67252 -1.83333,0 -2.58333,-0.30264 -1.66666,-0.67252 z"
       id="path53" />
    <path
       style="fill:#6ea7d5"
       d="m 979.66667,161.78362 c 0.91666,-0.36988 2.41666,-0.36988 3.33333,0 0.91667,0.36988 0.16667,0.67252 -1.66667,0.67252 -1.83333,0 -2.58333,-0.30264 -1.66666,-0.67252 z"
       id="path52" />
    <path
       style="fill:#6ea7d5"
       d="m 737.08333,161.75582 c 0.9625,-0.38516 2.1125,-0.33779 2.55556,0.10527 0.44305,0.44305 -0.34445,0.75818 -1.75,0.70029 -1.55326,-0.064 -1.8692,-0.37992 -0.80556,-0.80556 z"
       id="path51" />
    <path
       style="fill:#6ea7d5"
       d="m 725,161.78362 c 0.91667,-0.36988 2.41667,-0.36988 3.33333,0 0.91667,0.36988 0.16667,0.67252 -1.66666,0.67252 -1.83334,0 -2.58334,-0.30264 -1.66667,-0.67252 z"
       id="path50" />
    <path
       style="fill:#6ea7d5"
       d="m 353.08333,161.75584 c 0.9625,-0.38516 2.1125,-0.33779 2.55556,0.10527 0.44305,0.44305 -0.34445,0.75818 -1.75,0.70029 -1.55326,-0.064 -1.8692,-0.37992 -0.80556,-0.80556 z"
       id="path49" />
    <path
       style="fill:#6ea7d5"
       d="m 341,161.78364 c 0.91667,-0.36988 2.41667,-0.36988 3.33333,0 0.91667,0.36988 0.16667,0.67252 -1.66666,0.67252 -1.83334,0 -2.58334,-0.30264 -1.66667,-0.67252 z"
       id="path48" />
    <path
       style="fill:#6ea7d5"
       d="m 245,161.78364 c 0.91667,-0.36988 2.41667,-0.36988 3.33333,0 0.91667,0.36988 0.16667,0.67252 -1.66666,0.67252 -1.83334,0 -2.58334,-0.30264 -1.66667,-0.67252 z"
       id="path47" />
    <path
       style="fill:#6ea7d5"
       d="m 235.75,161.75584 c 0.9625,-0.38516 2.1125,-0.33779 2.55556,0.10527 0.44305,0.44305 -0.34445,0.75818 -1.75,0.70029 -1.55326,-0.064 -1.8692,-0.37992 -0.80556,-0.80556 z"
       id="path46" />
    <path
       style="fill:#6ea7d5"
       d="m 1361.7904,154 c 0,-5.86667 0.2393,-8.10081 0.5209,-4.96476 0.2817,3.13605 0.2777,7.93605 -0.01,10.66667 -0.2865,2.73061 -0.5169,0.16475 -0.5121,-5.70191 z"
       id="path45" />
    <path
       style="fill:#6ea7d5"
       d="m 1078.6667,166 c 0,-1.1 0.2358,-2 0.524,-2 0.2882,0 0.8694,0.9 1.2915,2 0.4221,1.1 0.1863,2 -0.524,2 -0.7104,0 -1.2915,-0.9 -1.2915,-2 z"
       id="path44" />
    <path
       style="fill:#6ea7d5"
       d="m 598.87719,166.66666 c 0,-1.83333 0.30263,-2.58333 0.67252,-1.66666 0.36988,0.91666 0.36988,2.41666 0,3.33333 -0.36989,0.91667 -0.67252,0.16667 -0.67252,-1.66667 z"
       id="path43" />
    <path
       style="fill:#6ea7d5"
       d="M 1130.4966,172.33333 1128.6667,170 1131,171.82992 c 1.2833,1.00646 2.3333,2.05646 2.3333,2.33333 0,0.27688 -0.2265,0.50341 -0.5034,0.50341 -0.2768,0 -1.3268,-1.05 -2.3333,-2.33333 z"
       id="path42" />
    <path
       style="fill:#6ea7d5"
       d="m 1404,175.49659 c 0,-0.27688 1.05,-1.32688 2.3333,-2.33334 l 2.3334,-1.82992 -1.83,2.33333 c -1.0064,1.28333 -2.0564,2.33333 -2.3333,2.33333 -0.2769,0 -0.5034,-0.22653 -0.5034,-0.5034 z"
       id="path41" />
    <path
       style="fill:#6ea7d5"
       d="m 694.66667,175.49659 c 0,-0.27688 1.05,-1.32688 2.33333,-2.33334 l 2.33333,-1.82992 -1.82992,2.33333 c -1.00646,1.28333 -2.05646,2.33333 -2.33334,2.33333 -0.27687,0 -0.5034,-0.22653 -0.5034,-0.5034 z"
       id="path40" />
    <path
       style="fill:#6ea7d5"
       d="m 310.66667,175.49659 c 0,-0.27688 1.05,-1.32688 2.33333,-2.33334 l 2.33333,-1.82992 -1.82992,2.33333 c -1.00646,1.28333 -2.05646,2.33333 -2.33334,2.33333 -0.27687,0 -0.5034,-0.22653 -0.5034,-0.5034 z"
       id="path39" />
    <path
       style="fill:#6ea7d5"
       d="m 1164,176.66666 c 1.7223,-1.83333 3.4315,-3.33333 3.7982,-3.33333 0.3666,0 -0.7425,1.5 -2.4649,3.33333 -1.7223,1.83333 -3.4315,3.33333 -3.7981,3.33333 -0.3667,0 0.7425,-1.5 2.4648,-3.33333 z"
       id="path38" />
    <path
       style="fill:#6ea7d5"
       d="m 985.69204,181.74267 c 1.29729,-0.33805 3.09729,-0.31582 4,0.0494 0.90271,0.36523 -0.15871,0.64182 -2.35871,0.61465 -2.2,-0.0272 -2.93858,-0.326 -1.64129,-0.66406 z"
       id="path37" />
    <path
       style="fill:#6ea7d5"
       d="m 1316.4571,173.99999 c 0,-5.86666 0.2392,-8.1008 0.5209,-4.96475 0.2817,3.13605 0.2777,7.93605 -0.01,10.66667 -0.2865,2.73061 -0.517,0.16475 -0.5121,-5.70192 z"
       id="path36" />
    <path
       style="fill:#6ea7d5"
       d="m 938.77193,203.22222 c 0.064,-1.55326 0.37992,-1.8692 0.80556,-0.80556 0.38516,0.9625 0.33779,2.1125 -0.10527,2.55556 -0.44305,0.44305 -0.75818,-0.34445 -0.70029,-1.75 z"
       id="path35" />
    <path
       style="fill:#6ea7d5"
       d="m 100,204.33333 c 0,-0.55 6,-1 13.33333,-1 7.33334,0 13.33334,0.45 13.33334,1 0,0.55 -6,1 -13.33334,1 -7.33333,0 -13.33333,-0.45 -13.33333,-1 z"
       id="path34" />
    <path
       style="fill:#6ea7d5"
       d="m 1152.2105,203.99999 c 0,-1.83333 0.3027,-2.58333 0.6725,-1.66666 0.3699,0.91666 0.3699,2.41666 0,3.33333 -0.3698,0.91667 -0.6725,0.16667 -0.6725,-1.66667 z"
       id="path33" />
    <path
       style="fill:#6ea7d5"
       d="m 1034.7719,207.22222 c 0.064,-1.55326 0.38,-1.8692 0.8056,-0.80556 0.3851,0.9625 0.3378,2.1125 -0.1053,2.55556 -0.443,0.44305 -0.7582,-0.34445 -0.7003,-1.75 z"
       id="path32" />
    <path
       style="fill:#6ea7d5"
       d="m 289.4386,207.22222 c 0.064,-1.55326 0.37992,-1.8692 0.80555,-0.80556 0.38516,0.9625 0.33779,2.1125 -0.10526,2.55556 -0.44306,0.44305 -0.75819,-0.34445 -0.70029,-1.75 z"
       id="path31" />
    <path
       style="fill:#6ea7d5"
       d="m 1152.2105,210.66666 c 0,-1.83333 0.3027,-2.58333 0.6725,-1.66667 0.3699,0.91667 0.3699,2.41667 0,3.33334 -0.3698,0.91666 -0.6725,0.16666 -0.6725,-1.66667 z"
       id="path30" />
    <path
       style="fill:#6ea7d5"
       d="m 938.87719,210.66666 c 0,-1.83333 0.30263,-2.58333 0.67252,-1.66667 0.36988,0.91667 0.36988,2.41667 0,3.33334 -0.36989,0.91666 -0.67252,0.16666 -0.67252,-1.66667 z"
       id="path29" />
    <path
       style="fill:#6ea7d5"
       d="m 1361.8514,201.99999 c 0,-9.53333 0.2147,-13.25838 0.4719,-8.27788 0.2573,4.9805 0.2554,12.7805 0,17.33333 -0.2596,4.55284 -0.47,0.47789 -0.4677,-9.05545 z"
       id="path28" />
    <path
       style="fill:#6ea7d5"
       d="m 1394.8772,227.99999 c 0,-1.83333 0.3026,-2.58333 0.6725,-1.66666 0.3699,0.91666 0.3699,2.41666 0,3.33333 -0.3699,0.91667 -0.6725,0.16667 -0.6725,-1.66667 z"
       id="path27" />
    <path
       style="fill:#6ea7d5"
       d="m 685.54386,227.99999 c 0,-1.83333 0.30263,-2.58333 0.67251,-1.66666 0.36989,0.91666 0.36989,2.41666 0,3.33333 -0.36988,0.91667 -0.67251,0.16667 -0.67251,-1.66667 z"
       id="path26" />
    <path
       style="fill:#6ea7d5"
       d="m 301.54386,227.99999 c 0,-1.83333 0.30263,-2.58333 0.67251,-1.66666 0.36989,0.91666 0.36989,2.41666 0,3.33333 -0.36988,0.91667 -0.67251,0.16667 -0.67251,-1.66667 z"
       id="path25" />
    <path
       style="fill:#6ea7d5"
       d="m 987,231.08089 c 1.28333,-0.33537 3.38333,-0.33537 4.66667,0 1.28333,0.33537 0.23333,0.60977 -2.33334,0.60977 -2.56666,0 -3.61666,-0.2744 -2.33333,-0.60977 z"
       id="path24" />
    <path
       style="fill:#6ea7d5"
       d="m 275.33333,239.99999 c 1.32732,-1.46666 2.7133,-2.66666 3.07997,-2.66666 0.36667,0 -0.41932,1.2 -1.74663,2.66666 -1.32732,1.46667 -2.7133,2.66667 -3.07997,2.66667 -0.36667,0 0.41932,-1.2 1.74663,-2.66667 z"
       id="path23" />
    <path
       style="fill:#6ea7d5"
       d="m 1023.3333,241.33333 c 1.3273,-1.46667 2.7133,-2.66667 3.08,-2.66667 0.3667,0 -0.4193,1.2 -1.7466,2.66667 -1.3273,1.46666 -2.7133,2.66666 -3.08,2.66666 -0.3667,0 0.4193,-1.2 1.7466,-2.66666 z"
       id="path22" />
    <path
       style="fill:#6ea7d5"
       d="m 1226.7719,248.55555 c 0.064,-1.55326 0.38,-1.8692 0.8056,-0.80556 0.3851,0.9625 0.3378,2.1125 -0.1053,2.55556 -0.443,0.44305 -0.7582,-0.34445 -0.7003,-1.75 z"
       id="path21" />
    <path
       style="fill:#6ea7d5"
       d="m 890.09081,182.04798 c 3.2712,-1.36679 5.29622,-3.44639 6.7545,-6.93655 1.26928,-3.03782 1.78743,-6.80391 1.32671,-9.64299 -0.41577,-2.56214 -2.28656,-6.19069 -4.1573,-8.06344 L 890.61338,154 874.64002,153.555 858.66667,153.11 v 15.445 15.44499 h 13.37615 c 8.72748,0 14.99979,-0.67839 18.04799,-1.95201 z"
       id="path20" />
    <path
       style="fill:#6ea7d5"
       d="m 892.70392,230.40708 c 1.92284,-0.8761 4.35107,-3.24631 5.39607,-5.26712 1.04501,-2.02081 1.90001,-5.9705 1.90001,-8.77708 0,-2.80658 -0.97842,-6.49975 -2.17426,-8.20706 -1.19584,-1.7073 -4.17657,-3.9408 -6.62384,-4.96334 -2.84963,-1.19065 -9.49902,-1.85915 -18.49241,-1.85915 h -14.04282 v 15.33333 15.33333 h 15.27059 c 8.9996,0 16.70629,-0.65414 18.76666,-1.59291 z"
       id="path19" />
    <path
       style="fill:#6ea7d5"
       d="M 833.33333,192.64855 V 134.43126 L 867,134.91798 l 33.66667,0.48671 6.29424,3.09278 c 3.46183,1.70103 8.35706,5.37608 10.8783,8.16679 3.25238,3.6 5.04258,7.28269 6.16243,12.67699 1.20241,5.79194 1.2107,9.07852 0.0348,13.79753 -0.84896,3.407 -2.4261,7.55646 -3.50475,9.22101 -1.07865,1.66456 -4.3329,4.74452 -7.23165,6.84437 l -5.27046,3.8179 3.82856,1.58585 c 2.10572,0.87221 5.36723,3.19225 7.24781,5.15563 1.88059,1.96338 4.35107,5.80052 5.48998,8.52696 1.1389,2.72645 2.07073,7.58691 2.07073,10.80104 0,3.21412 -0.68287,7.88339 -1.51747,10.37616 -0.83461,2.49276 -2.93039,6.43672 -4.65728,8.76436 -1.7269,2.32763 -6.59404,5.92763 -10.81587,8 L 902,249.99999 l -34.33333,0.43292 -34.33334,0.43293 z"
       id="path18" />
    <path
       style="fill:#6ea7d5"
       d="m 214.77193,248.55555 c 0.064,-1.55326 0.37992,-1.8692 0.80556,-0.80556 0.38516,0.9625 0.33779,2.1125 -0.10527,2.55556 -0.44305,0.44305 -0.75818,-0.34445 -0.70029,-1.75 z"
       id="path17" />
    <path
       style="fill:#6ea7d5"
       d="m 1433.0833,252.42248 c 0.9625,-0.38516 2.1125,-0.3378 2.5556,0.10526 0.443,0.44306 -0.3445,0.75819 -1.75,0.70029 -1.5533,-0.064 -1.8692,-0.37992 -0.8056,-0.80555 z"
       id="path16" />
    <path
       style="fill:#6ea7d5"
       d="m 1423.75,252.42248 c 0.9625,-0.38516 2.1125,-0.3378 2.5556,0.10526 0.443,0.44306 -0.3445,0.75819 -1.75,0.70029 -1.5533,-0.064 -1.8692,-0.37992 -0.8056,-0.80555 z"
       id="path15" />
    <path
       style="fill:#6ea7d5"
       d="m 1194.3333,252.45028 c 0.9167,-0.36988 2.4167,-0.36988 3.3334,0 0.9166,0.36989 0.1666,0.67252 -1.6667,0.67252 -1.8333,0 -2.5833,-0.30263 -1.6667,-0.67252 z"
       id="path14" />
    <path
       style="fill:#6ea7d5"
       d="m 993,252.45028 c 0.91667,-0.36988 2.41667,-0.36988 3.33333,0 0.91667,0.36989 0.16667,0.67252 -1.66666,0.67252 -1.83334,0 -2.58334,-0.30263 -1.66667,-0.67252 z"
       id="path13" />
    <path
       style="fill:#6ea7d5"
       d="m 981,252.45028 c 0.91667,-0.36988 2.41667,-0.36988 3.33333,0 0.91667,0.36989 0.16667,0.67252 -1.66666,0.67252 -1.83334,0 -2.58334,-0.30263 -1.66667,-0.67252 z"
       id="path12" />
    <path
       style="fill:#6ea7d5"
       d="m 723.75,252.42248 c 0.9625,-0.38516 2.1125,-0.3378 2.55556,0.10526 0.44305,0.44306 -0.34445,0.75819 -1.75,0.70029 -1.55326,-0.064 -1.8692,-0.37992 -0.80556,-0.80555 z"
       id="path11" />
    <path
       style="fill:#6ea7d5"
       d="m 714.41667,252.42248 c 0.9625,-0.38516 2.1125,-0.3378 2.55555,0.10526 0.44306,0.44306 -0.34444,0.75819 -1.75,0.70029 -1.55326,-0.064 -1.8692,-0.37992 -0.80555,-0.80555 z"
       id="path10" />
    <path
       style="fill:#6ea7d5"
       d="m 339.75,252.42248 c 0.9625,-0.38516 2.1125,-0.3378 2.55556,0.10526 0.44305,0.44306 -0.34445,0.75819 -1.75,0.70029 -1.55326,-0.064 -1.8692,-0.37992 -0.80556,-0.80555 z"
       id="path9" />
    <path
       style="fill:#6ea7d5"
       d="m 330.41667,252.42248 c 0.9625,-0.38516 2.1125,-0.3378 2.55555,0.10526 0.44306,0.44306 -0.34444,0.75819 -1.75,0.70029 -1.55326,-0.064 -1.8692,-0.37992 -0.80555,-0.80555 z"
       id="path8" />
    <path
       style="fill:#6ea7d5"
       d="m 245,252.45028 c 0.91667,-0.36988 2.41667,-0.36988 3.33333,0 0.91667,0.36989 0.16667,0.67252 -1.66666,0.67252 -1.83334,0 -2.58334,-0.30263 -1.66667,-0.67252 z"
       id="path6" />
    <path
       style="fill:#d3b52e"
       d="m 503.68221,161.72365 c 1.65855,-0.31893 4.05855,-0.30682 5.33334,0.0269 1.27478,0.33372 -0.0822,0.59466 -3.01555,0.57986 -2.93333,-0.0148 -3.97634,-0.28785 -2.31779,-0.60677 z"
       id="path100" />
    <path
       style="fill:#d3b52e"
       d="m 518.49659,189.66666 -1.82992,-2.33333 2.33333,1.82992 c 1.28333,1.00646 2.33333,2.05646 2.33333,2.33334 0,0.27687 -0.22653,0.5034 -0.5034,0.5034 -0.27688,0 -1.32688,-1.05 -2.33334,-2.33333 z"
       id="path99" />
    <path
       style="fill:#d3b52e"
       d="m 489.33333,191.49659 c 0,-0.27688 1.05,-1.32688 2.33334,-2.33334 L 494,187.33333 l -1.82993,2.33333 c -1.00646,1.28333 -2.05646,2.33333 -2.33333,2.33333 -0.27687,0 -0.50341,-0.22653 -0.50341,-0.5034 z"
       id="path98" />
    <path
       style="fill:#d3b52e"
       d="m 525.54386,203.99999 c 0,-1.83333 0.30263,-2.58333 0.67251,-1.66666 0.36989,0.91666 0.36989,2.41666 0,3.33333 -0.36988,0.91667 -0.67251,0.16667 -0.67251,-1.66667 z"
       id="path97" />
    <path
       style="fill:#d3b52e"
       d="m 484.21053,203.99999 c 0,-1.83333 0.30263,-2.58333 0.67251,-1.66666 0.36988,0.91666 0.36988,2.41666 0,3.33333 -0.36988,0.91667 -0.67251,0.16667 -0.67251,-1.66667 z"
       id="path96" />
    <path
       style="fill:#d3b52e"
       d="m 556.10526,207.22222 c 0.064,-1.55326 0.37992,-1.8692 0.80556,-0.80556 0.38516,0.9625 0.33779,2.1125 -0.10526,2.55556 -0.44306,0.44305 -0.75819,-0.34445 -0.7003,-1.75 z"
       id="path95" />
    <path
       style="fill:#d3b52e"
       d="m 453.4386,207.22222 c 0.064,-1.55326 0.37992,-1.8692 0.80555,-0.80556 0.38516,0.9625 0.33779,2.1125 -0.10526,2.55556 -0.44306,0.44305 -0.75819,-0.34445 -0.70029,-1.75 z"
       id="path94" />
    <path
       style="fill:#d3b52e"
       d="m 525.4386,209.88888 c 0.064,-1.55325 0.37992,-1.8692 0.80555,-0.80555 0.38516,0.9625 0.33779,2.1125 -0.10526,2.55555 -0.44306,0.44306 -0.75819,-0.34444 -0.70029,-1.75 z"
       id="path93" />
    <path
       style="fill:#d3b52e"
       d="m 484.10526,209.88888 c 0.064,-1.55325 0.37992,-1.8692 0.80556,-0.80555 0.38516,0.9625 0.33779,2.1125 -0.10526,2.55555 -0.44306,0.44306 -0.75819,-0.34444 -0.7003,-1.75 z"
       id="path92" />
    <path
       style="fill:#d3b52e"
       d="m 503.68221,252.39031 c 1.65855,-0.31892 4.05855,-0.30681 5.33334,0.0269 1.27478,0.33372 -0.0822,0.59466 -3.01555,0.57986 -2.93333,-0.0148 -3.97634,-0.28784 -2.31779,-0.60677 z"
       id="path5" />
    <path
       style="fill:#000000"
       d="m 226,250.27514 c -2.93333,-0.88466 -6.68333,-2.37959 -8.33333,-3.32206 -2.68972,-1.53635 -3,-1.43292 -3,1 v 2.71358 H 201.33333 188 v -60 -60 h 14 14 v 18.80932 18.80932 l 2.33333,-0.95035 c 1.28334,-0.5227 4.92706,-1.85819 8.09718,-2.96777 4.06439,-1.42258 9.17507,-1.85143 17.33333,-1.45447 8.71702,0.42415 13.39254,1.40047 18.96367,3.95993 4.06679,1.86834 9.60447,5.33765 12.30594,7.70958 2.70147,2.37192 6.87409,8.29864 9.27249,13.17048 3.82724,7.77422 4.3606,10.16627 4.35966,19.55259 -8.6e-4,8.73166 -0.63745,12.05192 -3.46815,18.08888 -1.90689,4.06679 -5.45443,9.65763 -7.88341,12.42409 -2.42898,2.76645 -8.06831,6.90149 -12.53185,9.18897 -7.15371,3.66615 -9.61672,4.20157 -20.78219,4.51773 -7.164,0.20286 -14.98358,-0.34009 -18,-1.24982 z m 21.87106,-22.38483 c 2.49574,-1.52151 5.61052,-4.06927 6.92172,-5.66168 1.31121,-1.59242 3.08162,-5.7559 3.93425,-9.25218 0.85263,-3.49628 1.14159,-7.99628 0.64212,-10 -0.49947,-2.00372 -1.83993,-5.61359 -2.9788,-8.02193 -1.17017,-2.47451 -4.51055,-5.80866 -7.68099,-7.66666 -3.27224,-1.91767 -7.70016,-3.28787 -10.625,-3.28787 -2.75807,0 -7.1089,0.99378 -9.6685,2.20839 -2.55961,1.21461 -6.15162,4.4717 -7.98226,7.23799 -1.83064,2.76628 -3.64672,7.40256 -4.03573,10.30283 -0.38901,2.90027 0.0456,7.59317 0.96583,10.42867 0.92021,2.8355 2.77074,6.72127 4.11228,8.63504 1.34155,1.91377 4.40826,4.45011 6.81493,5.63631 2.40667,1.18619 6.77576,2.16814 9.70909,2.1821 3.09001,0.0147 7.24201,-1.13823 9.87106,-2.74101 z m 74.79561,23.20071 c -1.1,-0.38415 -4.55848,-1.89441 -7.68552,-3.35614 -3.91627,-1.83066 -6.76682,-4.5028 -9.16034,-8.58704 -2.90048,-4.94929 -3.37628,-7.11777 -2.87859,-13.11931 0.38342,-4.62353 1.74946,-8.90317 3.82702,-11.98956 2.10229,-3.12314 6.02508,-6.1498 11.23076,-8.66519 5.27492,-2.54884 12.76889,-4.59684 22,-6.01228 7.7,-1.18067 15.35,-2.43144 17,-2.77949 2.05462,-0.4334 3,-1.59601 3,-3.68934 0,-1.68108 -1.25762,-4.4064 -2.7947,-6.05627 -1.53709,-1.64987 -4.15989,-3.51881 -5.82845,-4.15319 -1.80875,-0.68769 -5.25876,-0.58866 -8.54413,0.24526 -3.44419,0.87423 -6.99291,3.08718 -9.46415,5.90177 -2.32046,2.64285 -5.2099,4.50316 -6.9945,4.50325 -1.67241,9e-5 -6.79074,-1.63342 -11.37407,-3.63003 -4.58333,-1.99661 -8.33109,-4.24668 -8.32835,-5.00016 0.003,-0.75349 1.20147,-3.33238 2.66384,-5.73087 1.46236,-2.3985 5.51012,-6.17264 8.99501,-8.38697 3.48489,-2.21434 9.57286,-4.96971 13.52881,-6.12305 5.09057,-1.48413 10.74079,-1.92762 19.33333,-1.5175 8.81276,0.42063 14.07539,1.42748 19.1987,3.67309 3.95735,1.73456 8.98858,5.34907 11.45259,8.2277 2.41702,2.82375 5.09092,7.45825 5.94199,10.29888 0.97662,3.25968 1.54741,16.2967 1.54741,35.34344 v 30.17864 H 376 c -10.96296,0 -13.33333,-0.35556 -13.33333,-2 0,-1.1 -0.45,-1.98041 -1,-1.95647 -0.55,0.0239 -4.3,1.20435 -8.33334,2.62314 -4.99576,1.75733 -10.73343,2.55993 -18,2.51787 -5.86666,-0.034 -11.56666,-0.37604 -12.66666,-0.76018 z m 27.85522,-18.55094 c 1.98001,-1.16961 4.92258,-4.05674 6.53906,-6.41583 1.61648,-2.3591 2.93905,-6.1156 2.93905,-8.34779 v -4.05852 l -9.93958,1.72845 c -5.46677,0.95064 -11.15302,2.37786 -12.63611,3.17158 -1.48309,0.79373 -3.31028,2.58994 -4.06042,3.99159 -0.75014,1.40165 -1.36389,3.4879 -1.36389,4.63611 0,1.14821 1.2,3.28766 2.66667,4.75432 1.67783,1.67784 4.44444,2.66667 7.46094,2.66667 2.63685,0 6.41428,-0.95696 8.39428,-2.12658 z m 356.14478,18.55094 c -1.1,-0.38415 -4.55848,-1.89441 -7.68552,-3.35614 -3.91627,-1.83066 -6.76682,-4.5028 -9.16034,-8.58704 -2.90048,-4.94929 -3.37628,-7.11777 -2.87859,-13.11931 0.38342,-4.62353 1.74946,-8.90317 3.82702,-11.98956 2.10229,-3.12314 6.02508,-6.1498 11.23076,-8.66519 5.27492,-2.54884 12.76889,-4.59684 22,-6.01228 7.7,-1.18067 15.35,-2.43144 17,-2.77949 2.05462,-0.4334 3,-1.59601 3,-3.68934 0,-1.68108 -1.25762,-4.4064 -2.7947,-6.05627 -1.53709,-1.64987 -4.15989,-3.51881 -5.82845,-4.15319 -1.80875,-0.68769 -5.25876,-0.58866 -8.54413,0.24526 -3.44419,0.87423 -6.99291,3.08718 -9.46415,5.90177 -2.32046,2.64285 -5.2099,4.50316 -6.9945,4.50325 -1.67241,9e-5 -6.79074,-1.63342 -11.37407,-3.63003 -4.58333,-1.99661 -8.33109,-4.24668 -8.32835,-5.00016 0.003,-0.75349 1.20147,-3.33238 2.66384,-5.73087 1.46236,-2.3985 5.51012,-6.17264 8.99501,-8.38697 3.48489,-2.21434 9.57286,-4.96971 13.52881,-6.12305 5.09057,-1.48413 10.74079,-1.92762 19.33333,-1.5175 8.81276,0.42063 14.07539,1.42748 19.1987,3.67309 3.95735,1.73456 8.98858,5.34907 11.45259,8.2277 2.41702,2.82375 5.09092,7.45825 5.94199,10.29888 0.97662,3.25968 1.54741,16.2967 1.54741,35.34344 v 30.17864 H 760 c -10.96296,0 -13.33333,-0.35556 -13.33333,-2 0,-1.1 -0.45,-1.98041 -1,-1.95647 -0.55,0.0239 -4.3,1.20435 -8.33334,2.62314 -4.99576,1.75733 -10.73343,2.55993 -18,2.51787 -5.86666,-0.034 -11.56666,-0.37604 -12.66666,-0.76018 z m 27.85522,-18.55094 c 1.98001,-1.16961 4.92258,-4.05674 6.53906,-6.41583 1.61648,-2.3591 2.93905,-6.1156 2.93905,-8.34779 v -4.05852 l -9.93958,1.72845 c -5.46677,0.95064 -11.15302,2.37786 -12.63611,3.17158 -1.48309,0.79373 -3.31028,2.58994 -4.06042,3.99159 -0.75014,1.40165 -1.36389,3.4879 -1.36389,4.63611 0,1.14821 1.2,3.28766 2.66667,4.75432 1.67783,1.67784 4.44444,2.66667 7.46094,2.66667 2.63685,0 6.41428,-0.95696 8.39428,-2.12658 z m 235.08469,16.93428 c -3.883,-1.34122 -9.283,-4.2279 -12,-6.41484 -2.7169,-2.18694 -6.8847,-6.50986 -9.2617,-9.60647 -2.3771,-3.09662 -5.3002,-8.99538 -6.4958,-13.10836 -1.4562,-5.00918 -1.9637,-10.37249 -1.5369,-16.24475 0.3504,-4.82164 1.988,-11.89487 3.6392,-15.7183 1.7802,-4.12225 5.6749,-9.45181 9.5691,-13.0943 3.6118,-3.37844 9.3973,-7.45018 12.8566,-9.04831 5.3082,-2.45232 8.6821,-2.9057 21.6229,-2.9057 13.74472,0 16.10232,0.36064 22.75542,3.48094 4.0822,1.91451 9.7156,5.81451 12.5187,8.66666 2.8031,2.85215 6.3149,7.88573 7.804,11.18573 1.6641,3.6877 2.9433,9.98229 3.3193,16.33333 l 0.6119,10.33334 h -32.838 c -18.06092,0 -32.83792,0.41056 -32.83792,0.91236 0,0.50181 1.2,3.39135 2.6667,6.42122 1.7478,3.61047 4.5497,6.56706 8.1306,8.57965 4.2282,2.3764 6.8105,2.91902 11.4191,2.39955 3.8045,-0.42882 7.7302,-2.06707 10.86952,-4.53599 2.7027,-2.1256 6.1163,-3.78395 7.5858,-3.68522 1.4695,0.0987 6.6941,1.9516 11.6102,4.11748 l 8.9383,3.93796 -2.4966,4.10539 c -1.3731,2.25796 -4.6293,5.73208 -7.236,7.72026 -2.6066,1.98818 -8.4112,4.75768 -12.899,6.15444 -5.4538,1.69743 -11.98892,2.52513 -19.70742,2.49603 -7.6248,-0.0287 -13.9464,-0.87196 -18.608,-2.4821 z M 1004,194.64708 c 0,-1.47744 -1.9504,-4.81446 -4.33412,-7.41561 -3.1806,-3.47065 -5.7844,-4.92387 -9.783,-5.4602 -3.6884,-0.49472 -6.8304,-0.0164 -9.7248,1.48034 -2.3518,1.21615 -5.4472,4.13205 -6.8787,6.47978 -1.4315,2.34773 -2.605,5.0186 -2.6077,5.93527 0,1.24471 4.2146,1.66667 16.6617,1.66667 H 1004 Z m 178.9399,54.90187 c -3.883,-1.38225 -9.283,-4.30249 -12,-6.48943 -2.7169,-2.18694 -6.8745,-6.49647 -9.2391,-9.57673 -2.3645,-3.08026 -5.2145,-8.6829 -6.3333,-12.4503 -1.1188,-3.76741 -2.0342,-9.93203 -2.0342,-13.69916 0,-3.76713 0.9154,-9.93176 2.0342,-13.69916 1.1188,-3.76741 3.9688,-9.38566 6.3333,-12.48501 2.3646,-3.09934 7.1451,-7.67905 10.6235,-10.17713 3.4783,-2.49808 9.4783,-5.3816 13.3333,-6.40784 3.855,-1.02623 10.9637,-1.873 15.7972,-1.8817 4.8334,-0.009 11.4334,0.81205 14.6666,1.8239 3.2332,1.01185 6.9286,2.27605 8.2119,2.80932 l 2.3334,0.96959 v -18.80932 -18.80932 h 14 14 v 60 60 H 1241.3333 1228 v -2.59169 -2.5917 l -6.3333,2.85038 c -4.679,2.10581 -9.6421,2.96506 -19,3.28942 -9.8623,0.34184 -14.2298,-0.11736 -19.7268,-2.07412 z m 33.3961,-22.30539 c 1.9159,-1.41729 4.8098,-4.9111 6.4309,-7.76401 2.0019,-3.52322 2.9474,-7.41942 2.9474,-12.14622 0,-4.7268 -0.9455,-8.62301 -2.9474,-12.14622 -1.6211,-2.85291 -4.498,-6.33396 -6.3933,-7.73566 -1.8952,-1.4017 -6.2701,-2.81992 -9.7221,-3.1516 -4.2943,-0.41264 -7.8466,0.14216 -11.2495,1.75692 -2.7353,1.298 -6.4922,4.65524 -8.3487,7.46054 -1.8564,2.8053 -3.6729,7.74038 -4.0366,10.96684 -0.3637,3.22647 0.056,8.03801 0.9315,10.69232 0.876,2.65432 3.45,6.68325 5.7199,8.95318 2.27,2.26994 5.3732,4.66401 6.8962,5.32016 1.523,0.65615 5.8109,1.00797 9.5286,0.78183 4.0399,-0.24574 8.1612,-1.44799 10.2431,-2.98808 z M 1416,251.09102 c -1.1,-0.38415 -4.5585,-1.89441 -7.6855,-3.35614 -3.9163,-1.83066 -6.7668,-4.5028 -9.1604,-8.58704 -2.9004,-4.94929 -3.3762,-7.11777 -2.8785,-13.11931 0.3834,-4.62353 1.7494,-8.90317 3.827,-11.98956 2.1023,-3.12314 6.0251,-6.1498 11.2307,-8.66519 5.275,-2.54884 12.7689,-4.59684 22,-6.01228 7.7,-1.18067 15.35,-2.43144 17,-2.77949 2.0547,-0.4334 3,-1.59601 3,-3.68934 0,-1.68108 -1.2576,-4.4064 -2.7947,-6.05627 -1.5371,-1.64987 -4.1599,-3.51881 -5.8284,-4.15319 -1.8088,-0.68769 -5.2588,-0.58866 -8.5441,0.24526 -3.4442,0.87423 -6.993,3.08718 -9.4642,5.90177 -2.3205,2.64285 -5.2099,4.50316 -6.9945,4.50325 -1.6724,9e-5 -6.7907,-1.63342 -11.3741,-3.63003 -4.5833,-1.99661 -8.3311,-4.24668 -8.3283,-5.00016 0,-0.75349 1.2015,-3.33238 2.6638,-5.73087 1.4624,-2.3985 5.5101,-6.17264 8.995,-8.38697 3.4849,-2.21434 9.5729,-4.96971 13.5288,-6.12305 5.0906,-1.48413 10.7408,-1.92762 19.3334,-1.5175 8.8127,0.42063 14.0754,1.42748 19.1987,3.67309 3.9573,1.73456 8.9886,5.34907 11.4526,8.2277 2.417,2.82375 5.0909,7.45825 5.942,10.29888 0.9766,3.25968 1.5474,16.2967 1.5474,35.34344 v 30.17864 h -13.3334 c -10.9629,0 -13.3333,-0.35556 -13.3333,-2 0,-1.1 -0.45,-1.98041 -1,-1.95647 -0.55,0.0239 -4.3,1.20435 -8.3333,2.62314 -4.9958,1.75733 -10.7335,2.55993 -18,2.51787 C 1422.8,251.8172 1417.1,251.47516 1416,251.09102 Z m 27.8552,-18.55094 c 1.98,-1.16961 4.9226,-4.05674 6.5391,-6.41583 1.6165,-2.3591 2.939,-6.1156 2.939,-8.34779 v -4.05852 l -9.9395,1.72845 c -5.4668,0.95064 -11.1531,2.37786 -12.6362,3.17158 -1.483,0.79373 -3.3102,2.58994 -4.0604,3.99159 -0.7501,1.40165 -1.3639,3.4879 -1.3639,4.63611 0,1.14821 1.2,3.28766 2.6667,4.75432 1.6778,1.67784 4.4444,2.66667 7.4609,2.66667 2.6369,0 6.4143,-0.95696 8.3943,-2.12658 z M 56.492089,238.33333 c 2.4443,-6.78334 11.88234,-33.18334 20.97342,-58.66667 l 16.52924,-46.33333 h 19.481851 19.48186 l 20.30417,56.86183 c 11.1673,31.274 20.61584,57.674 20.99676,58.66666 0.55857,1.45562 -2.39559,1.80484 -15.26761,1.80484 h -15.96019 l -4.29251,-12 -4.29251,-12 H 113.40574 92.364919 l -4.29251,12 -4.29251,12 h -15.866 -15.86601 z m 70.196831,-34 c 0.0122,-0.55 -2.80298,-9.25 -6.25604,-19.33334 -3.45306,-10.08333 -6.61307,-18.3284 -7.02225,-18.32237 -0.40918,0.006 -3.59396,8.29011 -7.0773,18.40907 -3.48333,10.11897 -6.333331,18.81404 -6.333331,19.32238 0,0.50834 6.000001,0.92426 13.333331,0.92426 7.33334,0 13.34335,-0.45 13.35559,-1 z m 282.64441,-13.66667 v -60 h 14 14 v 60 60 h -14 -14 z M 572,207.33333 V 164 h 13.33333 13.33334 v 2.66666 c 0,1.46667 0.17313,2.66667 0.38474,2.66667 0.21161,0 2.73848,-1.2 5.61526,-2.66667 C 608.48036,164.72233 612.52957,164 619.61526,164 h 9.71807 v 9.03822 9.03823 l -9.42747,1.48446 c -6.61411,1.04147 -10.4454,2.4227 -12.83851,4.62844 -1.87606,1.72919 -4.2337,5.07471 -5.23919,7.43449 C 600.49383,198.75538 600,206.76904 600,225.2905 v 25.37616 h -14 -14 z m 70.66667,0 V 164 h 14 14 v 43.33333 43.33333 h -14 -14 z m 409.33333,0 V 164 h 13.3333 13.3334 v 2.49938 2.49939 l 5.6666,-2.82266 c 3.8285,-1.907 8.9262,-2.97566 15.7147,-3.29428 5.5264,-0.25939 12.4839,0.18431 15.4612,0.986 2.9772,0.80169 7.9498,3.29515 11.0501,5.54103 3.6664,2.65588 6.7635,6.50277 8.8592,11.00394 l 3.2221,6.92053 0.013,31.66666 0.013,31.66667 h -14 -14 v -26.71978 c 0,-23.71641 -0.2878,-27.28376 -2.5598,-31.73726 -1.4078,-2.7596 -4.136,-5.7357 -6.0627,-6.61354 -1.9267,-0.87785 -5.0046,-1.59609 -6.8398,-1.59609 -1.8353,0 -5.1543,0.93986 -7.3757,2.08856 -2.2455,1.1612 -4.8802,4.1023 -5.9337,6.62384 -1.4238,3.40747 -1.895,11.17731 -1.895,31.24478 v 26.70949 h -14 -14 z m 222.6667,0 V 164 h 14 14 v 43.33333 43.33333 h -14 -14 z m 76.9873,41.42758 c -2.7569,-0.98379 -6.0569,-2.60745 -7.3333,-3.60814 -1.2764,-1.0007 -3.0829,-2.71944 -4.0144,-3.81944 -0.9315,-1.1 -2.7315,-3.8 -4,-6 -1.8603,-3.22655 -2.4352,-8.51184 -2.973,-27.33334 l -0.6666,-23.33333 -7.6667,-0.39987 -7.6667,-0.39987 V 173.93346 164 h 2.7544 c 1.5148,0 4.0648,-0.69801 5.6666,-1.55113 1.6018,-0.85312 3.6156,-2.50312 4.4752,-3.66667 0.8596,-1.16354 1.9463,-4.66554 2.415,-7.7822 l 0.8522,-5.66667 h 13.9183 13.9183 V 154.66666 164 H 1372 h 10.6667 v 9.99999 10 h -10.7628 -10.7627 l 0.4294,19.97344 0.4294,19.97343 3.3333,3.29149 c 2.5293,2.49754 5.0218,3.38839 10.3331,3.69323 l 6.9998,0.40175 2e-4,9.66666 3e-4,9.66667 -13,-0.0585 c -7.338,-0.033 -15.1832,-0.83758 -18.0127,-1.84723 z M 642.66667,144.66666 v -11.33333 h 14 14 V 144.66666 156 h -14 -14 z m 632.00003,0 v -11.33333 h 14 14 V 144.66666 156 h -14 -14 z"
       id="path2" />
    <ellipse
       style="fill:#c43a2b;fill-opacity:1"
       id="path90"
       cx="508.42636"
       cy="204.02899"
       rx="52.73838"
       ry="48.61359" />
    <ellipse
       style="fill:#d4b72a;fill-opacity:1"
       id="path101"
       cx="1514.5803"
       cy="237.78641"
       rx="15.320646"
       ry="13.552879" />
  </g>
</svg>
