<svg version="1.2" xmlns="http://www.w3.org/2000/svg" viewBox="0 0 1200 260" width="1200" height="260">
	<style>
		<style>
	.s0 { fill: #000000; fill-rule: evenodd; } 
	.s1 { fill: #c43a2b; fill-rule: evenodd; } 
	.s2 { fill: #6fa8d6; fill-rule: evenodd; } 
	.s3 { fill: #d4b72a; fill-rule: evenodd; } 
</style>
	</style>
	<path id="Abaloria Bendita." class="s0" aria-label="Abaloria Bendita."  d="m63.2 188h-21.2l31.8-88.7h26l31.7 88.7h-21.3l-6.3-18.1h-34.4zm26.2-76l-14.5 41.9h23.6l-14.4-41.9zm-29.5 76h-21.2l31.8-88.6h25.9l31.8 88.6h-21.3l-6.3-18.1h-34.4zm26.2-76l-14.5 41.9h23.6l-14.4-41.9zm96.1 77.5q-7.1 0-13.1-2.4-6-2.5-9.6-7.3l1.7-3.7v11.9h-17.6v-90.1h18.9v37.5l-2.9-3.5q3.4-4.9 9.2-7.5 5.9-2.8 13.5-2.8 9.8 0 17.8 4.5 7.9 4.6 12.6 12.3 4.6 7.6 4.6 17.1 0 9.4-4.6 17.2-4.6 7.7-12.5 12.2-8 4.6-18 4.6zm-2.3-16.1q5.3 0 9.3-2.3 4.1-2.2 6.3-6.3 2.3-4 2.3-9.3 0-5.2-2.3-9.1-2.2-4.1-6.3-6.3-4-2.4-9.3-2.4-5 0-9.1 2.2-3.9 2.3-6.2 6.4-2.1 4-2.1 9.2 0 5.3 2.1 9.3 2.3 4.1 6.2 6.3 4.1 2.3 9.1 2.3zm-1.1 16.1q-7 0-13.1-2.4-5.9-2.5-9.5-7.3l1.7-3.7v11.9h-17.6v-90.1h18.9v37.5l-2.9-3.5q3.4-4.9 9.2-7.5 5.9-2.8 13.5-2.8 9.8 0 17.7 4.5 8 4.6 12.6 12.3 4.7 7.6 4.7 17.1 0 9.4-4.7 17.2-4.5 7.7-12.4 12.2-8 4.6-18.1 4.6zm-2.2-16.1q5.3 0 9.3-2.3 4-2.2 6.3-6.3 2.3-4 2.3-9.3 0-5.2-2.3-9.1-2.3-4.1-6.3-6.3-4-2.4-9.3-2.4-5.1 0-9.1 2.2-3.9 2.3-6.2 6.4-2.1 4-2.1 9.2 0 5.3 2.1 9.3 2.3 4.1 6.2 6.3 4 2.3 9.1 2.3zm77.3 16.1q-7.4 0-12.9-2.3-5.4-2.3-8.3-6.4-2.9-4.3-2.9-10.1 0-5.5 2.7-9.7 2.6-4.3 8-7.1 5.6-2.9 13.8-4.1l21-3.2v13.1l-17.6 3q-4.1 0.7-6.2 2.5-2.1 1.6-2.1 4.9 0 2.9 2.4 4.6 2.4 1.7 5.9 1.7 4.6 0 8.2-1.9 3.5-1.9 5.4-5.2 2-3.3 2-7.2v-16.9q0-3.7-3.1-6.2-3.1-2.5-8.4-2.5-5 0-8.9 2.6-3.8 2.6-5.6 6.9l-15.1-6.8q2-5.4 6.5-9.4 4.4-3.9 10.5-6 6.2-2.2 13.5-2.2 8.7 0 15.4 3 6.7 3 10.3 8.3 3.8 5.3 3.8 12.3v42.8h-17.6v-10.4l4.2-0.8q-3 4.3-6.6 7.2-3.7 2.7-8.2 4.1-4.6 1.4-10.1 1.4zm-3.3 0q-7.5 0-12.9-2.3-5.4-2.3-8.3-6.4-2.9-4.3-2.9-10.1 0-5.5 2.7-9.7 2.6-4.3 8-7.1 5.6-2.9 13.8-4.1l21-3.2v13.1l-17.6 3q-4.1 0.7-6.2 2.5-2.2 1.6-2.2 4.9 0 2.9 2.4 4.6 2.4 1.7 6 1.7 4.6 0 8.1-1.9 3.6-1.9 5.5-5.2 2-3.3 2-7.2v-16.9q0-3.7-3.2-6.2-3-2.5-8.3-2.5-5 0-8.9 2.6-3.8 2.6-5.6 6.9l-15.1-6.8q2-5.4 6.4-9.4 4.4-3.9 10.6-6 6.2-2.2 13.5-2.2 8.7 0 15.4 3 6.6 3 10.3 8.3 3.8 5.3 3.8 12.3v42.8h-17.7v-10.4l4.3-0.8q-3 4.3-6.7 7.2-3.6 2.7-8.1 4.1-4.6 1.4-10.1 1.4zm77.9-1.5h-18.9v-90.1h18.9zm-3.3 0h-18.9v-90h18.9zm125.3 0h-18.9v-65h17.6v15.6l-1.2-2.3q2.3-8.2 7.4-11.1 5.3-2.9 12.5-2.9h4v15.4h-5.9q-6.9 0-11.2 4.1-4.3 3.9-4.3 11.2zm-3.3 0h-18.9v-65h17.6v15.6l-1.2-2.3q2.2-8.2 7.4-11 5.3-3 12.5-3h4v15.5h-5.9q-6.9 0-11.2 4-4.3 3.9-4.3 11.2zm56.3 0h-18.9v-65h18.9zm0-70.8h-18.9v-17.8h18.9zm-3.3 70.8h-18.9v-65h18.9zm0-70.8h-18.9v-17.9h18.9zm41.7 72.3q-7.4 0-12.9-2.3-5.4-2.3-8.3-6.4-2.9-4.3-2.9-10.1 0-5.5 2.7-9.7 2.6-4.3 8-7.1 5.6-2.9 13.8-4.1l21-3.2v13.1l-17.6 3q-4.1 0.7-6.2 2.5-2.1 1.7-2.1 4.9 0 2.9 2.4 4.6 2.4 1.7 5.9 1.7 4.6 0 8.2-1.9 3.5-1.9 5.4-5.1 2-3.4 2-7.3v-16.9q0-3.7-3.1-6.2-3.1-2.5-8.4-2.5-5 0-8.9 2.6-3.8 2.6-5.6 6.9l-15.1-6.8q2-5.4 6.5-9.4 4.4-3.9 10.5-6 6.2-2.2 13.5-2.2 8.7 0 15.4 3 6.7 3 10.3 8.3 3.8 5.3 3.8 12.3v42.8h-17.6v-10.4l4.2-0.7q-3 4.2-6.6 7.1-3.7 2.7-8.2 4.2-4.6 1.3-10.1 1.3zm-3.3 0q-7.5 0-12.9-2.3-5.4-2.3-8.3-6.4-2.9-4.3-2.9-10.1 0-5.5 2.7-9.7 2.6-4.3 8-7.1 5.6-2.9 13.8-4.1l21-3.2v13.1l-17.6 3q-4.1 0.7-6.2 2.5-2.2 1.7-2.2 4.9 0 2.9 2.4 4.6 2.4 1.7 6 1.7 4.6 0 8.1-1.9 3.6-1.9 5.5-5.1 2-3.4 2-7.3v-16.9q0-3.7-3.2-6.2-3-2.5-8.3-2.5-5 0-8.9 2.6-3.8 2.6-5.6 6.9l-15.1-6.8q2-5.4 6.4-9.4 4.4-3.9 10.6-6 6.2-2.2 13.5-2.2 8.7 0 15.4 3 6.6 3 10.3 8.3 3.8 5.3 3.8 12.3v42.8h-17.7v-10.4l4.3-0.7q-3 4.2-6.7 7.1-3.6 2.7-8.1 4.2-4.6 1.3-10.1 1.3zm205.1 0q-10.9 0-19-4.6-8-4.6-12.5-12.3-4.4-7.8-4.4-17.2 0-9.7 4.6-17.3 4.6-7.7 12.4-12.1 7.9-4.4 17.7-4.4 8.2 0 14.5 2.5 6.3 2.4 10.6 6.8 4.4 4.4 6.6 10.3 2.3 5.7 2.3 12.4 0 2-0.2 3.9-0.2 1.7-0.7 3h-51.5v-13h40.8l-8.9 6.1q1.2-5.1-0.2-9-1.3-4-4.9-6.3-3.4-2.4-8.4-2.4-4.9 0-8.5 2.3-3.5 2.2-5.2 6.6-1.8 4.4-1.4 10.8-0.5 5.4 1.4 9.6 1.8 4.2 5.7 6.5 4 2.3 9.5 2.3 5 0 8.6-1.9 3.6-1.9 5.6-5.2l15.2 6.7q-2.1 4.8-6.5 8.4-4.3 3.5-10.2 5.6-5.9 1.9-13 1.9zm-3.3 0q-10.9 0-19-4.6-8.1-4.6-12.5-12.3-4.4-7.8-4.4-17.2 0-9.7 4.5-17.3 4.7-7.7 12.5-12.1 7.8-4.4 17.7-4.4 8.2 0 14.5 2.5 6.3 2.4 10.5 6.8 4.4 4.4 6.7 10.3 2.3 5.7 2.3 12.4 0 2-0.3 3.9-0.1 1.7-0.6 3h-51.5v-13h40.8l-9 6.1q1.3-5.1-0.1-9-1.4-4-4.9-6.3-3.4-2.4-8.4-2.4-5 0-8.5 2.3-3.5 2.2-5.3 6.6-1.7 4.4-1.4 10.8-0.5 5.4 1.4 9.6 1.9 4.2 5.8 6.5 3.9 2.3 9.5 2.3 5 0 8.5-1.9 3.7-1.9 5.7-5.2l15.1 6.7q-2 4.8-6.4 8.4-4.3 3.5-10.2 5.6-5.9 1.9-13 1.9zm70.1-1.5h-18.9v-64.9h17.6v12.8l-1-2.8q2.4-5.9 7.7-8.6 5.4-2.9 12.6-2.9 7.8 0 13.6 3.1 6 3.1 9.2 8.7 3.3 5.5 3.3 12.9v41.7h-18.9v-37.9q0-3.8-1.6-6.6-1.5-2.7-4.4-4.3-2.8-1.5-6.6-1.5-3.6 0-6.5 1.5-2.9 1.6-4.6 4.3-1.5 2.8-1.5 6.6zm-3.3 0h-18.9v-65h17.6v12.9l-1-2.9q2.4-5.8 7.7-8.6 5.4-2.8 12.6-2.8 7.8 0 13.6 3.1 5.9 3.1 9.2 8.7 3.3 5.4 3.3 12.8v41.8h-18.9v-38q0-3.8-1.7-6.5-1.5-2.8-4.4-4.3-2.7-1.6-6.5-1.6-3.7 0-6.6 1.6-2.9 1.5-4.5 4.3-1.5 2.7-1.5 6.5zm95.8 1.4q-10.1 0-18-4.5-8-4.5-12.6-12.2-4.6-7.8-4.6-17.2 0-9.5 4.7-17.1 4.7-7.7 12.6-12.3 7.9-4.5 17.8-4.5 7.5 0 13.3 2.8 5.9 2.6 9.3 7.4l-2.9 3.6v-37.5h18.9v90.1h-17.6v-11.9l1.8 3.7q-3.6 4.8-9.6 7.3-6.1 2.3-13.1 2.3zm2.3-16q5.1 0 9-2.3 3.9-2.2 6.1-6.3 2.2-4 2.2-9.3 0-5.2-2.2-9.3-2.2-4-6.1-6.3-3.9-2.2-9-2.2-5.2 0-9.4 2.4-4 2.2-6.3 6.3-2.2 3.9-2.2 9.1 0 5.3 2.2 9.3 2.3 4.1 6.3 6.3 4.2 2.3 9.4 2.3zm-5.6 16q-10.1 0-18.1-4.5-7.9-4.5-12.6-12.2-4.5-7.8-4.5-17.2 0-9.5 4.7-17.1 4.6-7.7 12.6-12.3 7.9-4.5 17.7-4.5 7.6 0 13.4 2.8 5.9 2.6 9.3 7.4l-2.9 3.6v-37.5h18.9v90.1h-17.6v-11.9l1.7 3.7q-3.5 4.8-9.5 7.3-6.1 2.3-13.1 2.3zm2.2-16q5.2 0 9.1-2.3 3.9-2.2 6.1-6.3 2.2-4 2.2-9.3 0-5.2-2.2-9.3-2.2-4-6.1-6.3-3.9-2.2-9.1-2.2-5.1 0-9.3 2.4-4 2.2-6.3 6.3-2.3 3.9-2.3 9.1 0 5.3 2.3 9.3 2.3 4.1 6.3 6.3 4.2 2.3 9.3 2.3zm75.6 14.6h-18.9v-65h18.9zm0-70.8h-18.9v-17.8h18.9zm-3.3 70.8h-18.9v-65h18.9zm0-70.8h-18.9v-17.8h18.9zm54.5 71.5q-12.4 0-19.4-6.3-6.8-6.5-6.8-17.9v-26h-11.6v-15.5h0.7q5.3 0 8-2.5 2.9-2.5 2.9-7.5v-4.8h18.9v14.8h16.2v15.5h-16.2v24.8q0 3.4 1.3 5.6 1.3 2.2 3.9 3.2 2.6 1.1 6.6 1.1 0.8 0 2-0.1 1.1-0.1 2.4-0.2v15.1q-1.9 0.2-4.3 0.4-2.4 0.3-4.6 0.3zm-3.3 0q-12.5 0-19.4-6.3-6.8-6.5-6.8-17.9v-26h-11.6v-15.5h0.7q5.2 0 8-2.5 2.9-2.5 2.9-7.5v-4.8h18.9v14.8h16.1v15.5h-16.1v24.8q0 3.4 1.3 5.6 1.2 2.2 3.9 3.2 2.6 1.1 6.5 1.1 0.9 0 2-0.1 1.2-0.1 2.4-0.2v15.1q-1.8 0.2-4.2 0.4-2.4 0.3-4.6 0.3zm48.5 0.7q-7.4 0-12.9-2.3-5.4-2.2-8.3-6.4-2.9-4.3-2.9-10.1 0-5.5 2.7-9.6 2.6-4.3 8-7.2 5.6-2.8 13.8-4l21-3.2v13l-17.6 3q-4.1 0.7-6.2 2.5-2.1 1.7-2.1 4.9 0 3 2.4 4.6 2.4 1.7 5.9 1.7 4.6 0 8.2-1.9 3.5-1.9 5.4-5.1 2-3.3 2-7.3v-16.9q0-3.7-3.1-6.2-3.1-2.5-8.4-2.5-5 0-8.9 2.7-3.8 2.6-5.6 6.9l-15.1-6.8q2-5.5 6.5-9.4 4.4-4 10.5-6.1 6.2-2.1 13.5-2.1 8.7 0 15.4 2.9 6.7 3 10.3 8.4 3.8 5.2 3.8 12.2v42.9h-17.6v-10.5l4.2-0.7q-3 4.3-6.6 7.1-3.7 2.8-8.2 4.2-4.6 1.3-10.1 1.3zm-3.3 0q-7.5 0-12.9-2.3-5.4-2.2-8.3-6.4-2.9-4.3-2.9-10.1 0-5.5 2.7-9.6 2.6-4.3 8-7.2 5.6-2.8 13.8-4l21-3.2v13l-17.6 3q-4.1 0.7-6.2 2.5-2.2 1.7-2.2 4.9 0 3 2.4 4.6 2.4 1.7 6 1.7 4.6 0 8.1-1.9 3.6-1.9 5.5-5.1 2-3.3 2-7.3v-16.9q0-3.7-3.2-6.2-3-2.5-8.3-2.5-5 0-8.9 2.7-3.8 2.6-5.6 6.9l-15.1-6.8q2-5.5 6.4-9.4 4.4-4 10.6-6.1 6.2-2.1 13.5-2.1 8.7 0 15.4 2.9 6.6 3 10.3 8.4 3.8 5.2 3.8 12.2v42.9h-17.7v-10.5l4.3-0.7q-3 4.3-6.7 7.1-3.6 2.8-8.1 4.2-4.6 1.3-10.1 1.3z"/>
	<path id="Abaloria Bendita." class="s1" aria-label="Abaloria Bendita."  d="m380.7 189.4q-10.2 0-18.6-4.4-8.3-4.4-13.4-12-4.9-7.7-4.9-17.5 0-9.9 4.9-17.5 5.1-7.6 13.4-12 8.4-4.4 18.6-4.4 10.2 0 18.6 4.4 8.3 4.4 13.2 12 5 7.6 5 17.5 0 9.8-5 17.5-4.9 7.6-13.2 12-8.4 4.4-18.6 4.4zm0-16q5.2 0 9-2.3 3.9-2.3 6-6.3 2.3-4.1 2.3-9.3 0-5.2-2.3-9.2-2.1-4-6-6.3-3.8-2.3-9-2.3-5.1 0-9 2.3-3.9 2.3-6.2 6.3-2.2 4-2.2 9.2 0 5.2 2.2 9.3 2.3 4 6.2 6.3 3.9 2.3 9 2.3zm-3.3 16q-10.2 0-18.6-4.4-8.3-4.4-13.4-12-4.9-7.7-4.9-17.5 0-9.9 4.9-17.5 5.1-7.6 13.4-12 8.4-4.4 18.6-4.4 10.2 0 18.5 4.4 8.4 4.4 13.3 12 5 7.6 5 17.5 0 9.8-5 17.5-4.9 7.6-13.3 12-8.3 4.4-18.5 4.4zm0-16q5.2 0 9-2.3 3.9-2.3 6-6.3 2.3-4.1 2.3-9.3 0-5.2-2.3-9.2-2.1-4-6-6.3-3.8-2.3-9-2.3-5.2 0-9.1 2.3-3.9 2.3-6.1 6.3-2.2 4-2.2 9.2 0 5.2 2.2 9.3 2.2 4 6.1 6.3 3.9 2.3 9.1 2.3z"/>
	<path id="Abaloria Bendita." class="s2" aria-label="Abaloria Bendita."  d="m627.9 188h37.3c19 0 30-8.7 30-23.6 0-10.1-5-17-14.7-20 8.7-3.4 13.3-10.3 13.3-19.9 0-14.6-11.1-23.5-29.3-23.5h-36.6zm35.2-73.5c9.1 0 14.2 4 14.2 11.5 0 7.7-5 12.2-13.8 12.2h-19.5v-23.7zm1.4 36.5c8.9 0 14.1 4.2 14.1 11.5 0 7.9-5 12.1-14.1 12.1h-20.6v-23.6zm-39.9 37h37.3c19 0 29.9-8.7 29.9-23.6 0-10.1-4.9-17-14.6-19.9 8.7-3.5 13.3-10.4 13.3-20 0-14.6-11.1-23.5-29.3-23.5h-36.6zm35.2-73.5c9.1 0 14.1 4 14.1 11.5 0 7.8-4.9 12.2-13.7 12.2h-19.5v-23.7zm1.4 36.5c8.9 0 14.1 4.2 14.1 11.6 0 7.8-5.1 12-14.1 12h-20.6v-23.6z"/>
	<path id="Abaloria Bendita." class="s3" aria-label="Abaloria Bendita."  d="m1141.4 188.7c6 0 9.9-3.4 9.9-9 0-5.2-3.5-9.1-9.9-9.1-6 0-10 3.6-10 9.1 0 5.1 3.6 9 10 9zm-4 0c5.9 0 9.8-3.4 9.8-9 0-5.2-3.4-9.1-9.8-9.1-6 0-10 3.6-10 9.1 0 5.1 3.5 9 10 9z"/>
</svg>