<svg version="1.2" xmlns="http://www.w3.org/2000/svg" viewBox="0 0 1200 260" width="1200" height="260">
	<style>
		.s0 { fill: #000000 } 
		.s1 { fill: #c43a2b } 
		.s2 { fill: #6fa8d6 } 
		.s3 { fill: #d4b72a } 
	</style>
	<path id="Abaloria Bendita." class="s0" aria-label="Abaloria Bendita."  d="m63.2 188h-21.2l31.8-93.9h26l31.7 93.9h-21.3l-6.3-19.2h-34.4zm26.2-80.5l-14.5 44.4h23.6l-14.4-44.4zm-29.5 80.5h-21.2l31.8-93.8h25.9l31.8 93.8h-21.3l-6.3-19.1h-34.4zm26.2-80.5l-14.5 44.3h23.6l-14.4-44.3zm96.1 82q-7.1 0-13.1-2.5-6-2.7-9.6-7.7l1.7-3.9v12.6h-17.6v-95.4h18.9v39.7l-2.9-3.8q3.4-5.1 9.2-7.9 5.9-2.9 13.5-2.9 9.8 0 17.8 4.8 7.9 4.8 12.6 13 4.6 8 4.6 18.1 0 10-4.6 18.1-4.6 8.2-12.5 13-8 4.8-18 4.8zm-2.3-17q5.3 0 9.3-2.4 4.1-2.4 6.3-6.7 2.3-4.3 2.3-9.8 0-5.5-2.3-9.7-2.2-4.3-6.3-6.7-4-2.5-9.3-2.5-5 0-9.1 2.4-3.9 2.4-6.2 6.7-2.1 4.3-2.1 9.8 0 5.5 2.1 9.8 2.3 4.3 6.2 6.7 4.1 2.4 9.1 2.4zm-1.1 17q-7 0-13.1-2.5-5.9-2.7-9.5-7.7l1.7-3.9v12.6h-17.6v-95.4h18.9v39.7l-2.9-3.8q3.4-5.1 9.2-7.9 5.9-2.9 13.5-2.9 9.8 0 17.7 4.8 8 4.8 12.6 13 4.7 8 4.7 18.1 0 10-4.7 18.1-4.5 8.2-12.4 13-8 4.8-18.1 4.8zm-2.2-17q5.3 0 9.3-2.4 4-2.4 6.3-6.7 2.3-4.3 2.3-9.8 0-5.5-2.3-9.7-2.3-4.3-6.3-6.7-4-2.5-9.3-2.5-5.1 0-9.1 2.4-3.9 2.4-6.2 6.7-2.1 4.3-2.1 9.8 0 5.5 2.1 9.8 2.3 4.3 6.2 6.7 4 2.4 9.1 2.4zm77.3 17q-7.4 0-12.9-2.4-5.4-2.4-8.3-6.8-2.9-4.5-2.9-10.7 0-5.8 2.7-10.2 2.6-4.5 8-7.6 5.6-3 13.8-4.3l21-3.4v13.9l-17.6 3.2q-4.1 0.7-6.2 2.6-2.1 1.8-2.1 5.2 0 3.1 2.4 4.9 2.4 1.7 5.9 1.7 4.6 0 8.2-2 3.5-2 5.4-5.4 2-3.5 2-7.7v-17.9q0-3.9-3.1-6.5-3.1-2.7-8.4-2.7-5 0-8.9 2.8-3.8 2.8-5.6 7.3l-15.1-7.2q2-5.8 6.5-9.9 4.4-4.2 10.5-6.4 6.2-2.3 13.5-2.3 8.7 0 15.4 3.1 6.7 3.2 10.3 8.9 3.8 5.5 3.8 12.9v45.4h-17.6v-11.1l4.2-0.7q-3 4.5-6.6 7.5-3.7 2.9-8.2 4.4-4.6 1.4-10.1 1.4zm-3.3 0q-7.5 0-12.9-2.4-5.4-2.4-8.3-6.8-2.9-4.5-2.9-10.7 0-5.8 2.7-10.2 2.6-4.5 8-7.6 5.6-3 13.8-4.3l21-3.4v13.9l-17.6 3.2q-4.1 0.7-6.2 2.6-2.2 1.8-2.2 5.2 0 3.1 2.4 4.9 2.4 1.7 6 1.7 4.6 0 8.1-2 3.6-2 5.5-5.4 2-3.5 2-7.7v-17.9q0-3.9-3.2-6.5-3-2.7-8.3-2.7-5 0-8.9 2.8-3.8 2.8-5.6 7.3l-15.1-7.2q2-5.8 6.4-9.9 4.4-4.2 10.6-6.4 6.2-2.3 13.5-2.3 8.7 0 15.4 3.1 6.6 3.2 10.3 8.9 3.8 5.5 3.8 12.9v45.4h-17.7v-11.1l4.3-0.7q-3 4.5-6.7 7.5-3.6 2.9-8.1 4.4-4.6 1.4-10.1 1.4zm77.9-1.5h-18.9v-95.4h18.9zm-3.3 0h-18.9v-95.4h18.9zm125.3 0h-18.9v-68.8h17.6v16.5l-1.2-2.4q2.3-8.6 7.4-11.7 5.3-3.1 12.5-3.1h4v16.4h-5.9q-6.9 0-11.2 4.2-4.3 4.2-4.3 11.9zm-3.3 0h-18.9v-68.8h17.6v16.5l-1.2-2.4q2.2-8.7 7.4-11.7 5.3-3.2 12.5-3.2h4v16.4h-5.9q-6.9 0-11.2 4.3-4.3 4.2-4.3 11.8zm56.3 0h-18.9v-68.8h18.9zm0-74.9h-18.9v-18.9h18.9zm-3.3 74.9h-18.9v-68.7h18.9zm0-75h-18.9v-18.9h18.9zm41.7 76.5q-7.4 0-12.9-2.4-5.4-2.4-8.3-6.8-2.9-4.6-2.9-10.7 0-5.8 2.7-10.3 2.6-4.5 8-7.5 5.6-3 13.8-4.3l21-3.4v13.9l-17.6 3.1q-4.1 0.8-6.2 2.7-2.1 1.7-2.1 5.1 0 3.2 2.4 4.9 2.4 1.8 5.9 1.8 4.6 0 8.2-2 3.5-2 5.4-5.4 2-3.6 2-7.7v-17.9q0-3.9-3.1-6.6-3.1-2.6-8.4-2.6-5 0-8.9 2.8-3.8 2.7-5.6 7.3l-15.1-7.2q2-5.8 6.5-10 4.4-4.1 10.5-6.4 6.2-2.3 13.5-2.3 8.7 0 15.4 3.2 6.7 3.1 10.3 8.8 3.8 5.6 3.8 13v45.4h-17.6v-11.1l4.2-0.8q-3 4.5-6.6 7.6-3.7 2.9-8.2 4.4-4.6 1.4-10.1 1.4zm-3.3 0q-7.5 0-12.9-2.4-5.4-2.4-8.3-6.8-2.9-4.6-2.9-10.7 0-5.8 2.7-10.3 2.6-4.5 8-7.5 5.6-3 13.8-4.3l21-3.4v13.9l-17.6 3.1q-4.1 0.8-6.2 2.7-2.2 1.7-2.2 5.1 0 3.2 2.4 4.9 2.4 1.8 6 1.8 4.6 0 8.1-2 3.6-2 5.5-5.4 2-3.6 2-7.7v-17.9q0-3.9-3.2-6.6-3-2.6-8.3-2.6-5 0-8.9 2.8-3.8 2.7-5.6 7.3l-15.1-7.2q2-5.8 6.4-10 4.4-4.1 10.6-6.4 6.2-2.3 13.5-2.3 8.7 0 15.4 3.2 6.6 3.1 10.3 8.8 3.8 5.6 3.8 13v45.4h-17.7v-11.1l4.3-0.8q-3 4.5-6.7 7.6-3.6 2.9-8.1 4.4-4.6 1.4-10.1 1.4zm205.1 0q-10.9 0-19-4.8-8-4.9-12.5-13.1-4.4-8.2-4.4-18.2 0-10.3 4.6-18.4 4.6-8 12.4-12.7 7.9-4.7 17.7-4.7 8.2 0 14.5 2.7 6.3 2.5 10.6 7.2 4.4 4.6 6.6 10.8 2.3 6.1 2.3 13.2 0 2.1-0.2 4.1-0.2 1.9-0.7 3.2h-51.5v-13.8h40.8l-8.9 6.5q1.2-5.4-0.2-9.5-1.3-4.3-4.9-6.7-3.4-2.5-8.4-2.5-4.9 0-8.5 2.4-3.5 2.4-5.2 7-1.8 4.7-1.4 11.4-0.5 5.7 1.4 10.2 1.8 4.4 5.7 6.9 4 2.4 9.5 2.4 5 0 8.6-2 3.6-2 5.6-5.6l15.2 7.2q-2.1 5-6.5 8.8-4.3 3.8-10.2 5.9-5.9 2.1-13 2.1zm-3.3 0q-10.9 0-19-4.8-8.1-4.9-12.5-13.1-4.4-8.2-4.4-18.2 0-10.3 4.5-18.4 4.7-8 12.5-12.7 7.8-4.7 17.7-4.7 8.2 0 14.5 2.7 6.3 2.5 10.5 7.2 4.4 4.6 6.7 10.8 2.3 6.1 2.3 13.2 0 2.1-0.3 4.1-0.1 1.9-0.6 3.2h-51.5v-13.8h40.8l-9 6.5q1.3-5.4-0.1-9.5-1.4-4.3-4.9-6.7-3.4-2.5-8.4-2.5-5 0-8.5 2.4-3.5 2.4-5.3 7-1.7 4.7-1.4 11.4-0.5 5.7 1.4 10.2 1.9 4.4 5.8 6.9 3.9 2.4 9.5 2.4 5 0 8.5-2 3.7-2 5.7-5.6l15.1 7.2q-2 5-6.4 8.8-4.3 3.8-10.2 5.9-5.9 2.1-13 2.1zm70.1-1.5h-18.9v-68.8h17.6v13.6l-1-3.1q2.4-6.1 7.7-9 5.4-3.1 12.6-3.1 7.8 0 13.6 3.3 6 3.3 9.2 9.2 3.3 5.8 3.3 13.6v44.3h-18.9v-40.2q0-4.1-1.6-7-1.5-2.9-4.4-4.5-2.8-1.6-6.6-1.6-3.6 0-6.5 1.6-2.9 1.6-4.6 4.5-1.5 2.9-1.5 7zm-3.3 0h-18.9v-68.8h17.6v13.6l-1-3.1q2.4-6.1 7.7-9 5.4-3.1 12.6-3.1 7.8 0 13.6 3.3 5.9 3.3 9.2 9.2 3.3 5.8 3.3 13.6v44.3h-18.9v-40.2q0-4.1-1.7-7-1.5-2.9-4.4-4.5-2.7-1.6-6.5-1.6-3.7 0-6.6 1.6-2.9 1.6-4.5 4.5-1.5 2.9-1.5 7zm95.8 1.5q-10.1 0-18-4.8-8-4.8-12.6-13-4.6-8.2-4.6-18.1 0-10.1 4.7-18.2 4.7-8.2 12.6-13 7.9-4.7 17.8-4.7 7.5 0 13.3 2.9 5.9 2.7 9.3 7.9l-2.9 3.8v-39.7h18.9v95.4h-17.6v-12.6l1.8 3.9q-3.6 5-9.6 7.7-6.1 2.5-13.1 2.5zm2.3-17q5.1 0 9-2.4 3.9-2.4 6.1-6.7 2.2-4.3 2.2-9.8 0-5.6-2.2-9.9-2.2-4.2-6.1-6.6-3.9-2.4-9-2.4-5.2 0-9.4 2.5-4 2.4-6.3 6.7-2.2 4.1-2.2 9.7 0 5.5 2.2 9.8 2.3 4.3 6.3 6.7 4.2 2.4 9.4 2.4zm-5.6 17q-10.1 0-18.1-4.8-7.9-4.8-12.6-13-4.5-8.2-4.5-18.1 0-10.1 4.7-18.2 4.6-8.2 12.6-13 7.9-4.7 17.7-4.7 7.6 0 13.4 2.9 5.9 2.7 9.3 7.9l-2.9 3.8v-39.7h18.9v95.4h-17.6v-12.6l1.7 3.9q-3.5 5-9.5 7.7-6.1 2.5-13.1 2.5zm2.2-17q5.2 0 9.1-2.4 3.9-2.4 6.1-6.7 2.2-4.3 2.2-9.8 0-5.6-2.2-9.9-2.2-4.2-6.1-6.6-3.9-2.4-9.1-2.4-5.1 0-9.3 2.5-4 2.4-6.3 6.7-2.3 4.1-2.3 9.7 0 5.5 2.3 9.8 2.3 4.3 6.3 6.7 4.2 2.4 9.3 2.4zm75.6 15.5h-18.9v-68.8h18.9zm0-75h-18.9v-18.9h18.9zm-3.3 75h-18.9v-68.8h18.9zm0-75h-18.9v-18.9h18.9zm54.5 75.7q-12.4 0-19.4-6.7-6.8-6.8-6.8-18.9v-27.5h-11.6v-16.4h0.7q5.3 0 8-2.7 2.9-2.6 2.9-7.9v-5h18.9v15.6h16.2v16.4h-16.2v26.3q0 3.5 1.3 5.9 1.3 2.3 3.9 3.4 2.6 1.1 6.6 1.1 0.8 0 2-0.1 1.1-0.1 2.4-0.2v16q-1.9 0.2-4.3 0.5-2.4 0.2-4.6 0.2zm-3.3 0q-12.5 0-19.4-6.7-6.8-6.8-6.8-18.9v-27.5h-11.6v-16.4h0.7q5.2 0 8-2.7 2.9-2.6 2.9-7.9v-5h18.9v15.6h16.1v16.4h-16.1v26.3q0 3.5 1.3 5.9 1.2 2.3 3.9 3.4 2.6 1.1 6.5 1.1 0.9 0 2-0.1 1.2-0.1 2.4-0.2v16q-1.8 0.2-4.2 0.5-2.4 0.2-4.6 0.2zm48.5 0.8q-7.4 0-12.9-2.4-5.4-2.4-8.3-6.8-2.9-4.6-2.9-10.7 0-5.8 2.7-10.2 2.6-4.6 8-7.6 5.6-3 13.8-4.3l21-3.4v13.9l-17.6 3.1q-4.1 0.8-6.2 2.7-2.1 1.7-2.1 5.1 0 3.2 2.4 5 2.4 1.7 5.9 1.7 4.6 0 8.2-2 3.5-2 5.4-5.4 2-3.5 2-7.7v-17.9q0-3.9-3.1-6.5-3.1-2.7-8.4-2.7-5 0-8.9 2.8-3.8 2.8-5.6 7.3l-15.1-7.2q2-5.8 6.5-9.9 4.4-4.2 10.5-6.5 6.2-2.2 13.5-2.2 8.7 0 15.4 3.1 6.7 3.2 10.3 8.8 3.8 5.6 3.8 13v45.4h-17.6v-11.1l4.2-0.8q-3 4.6-6.6 7.6-3.7 2.9-8.2 4.4-4.6 1.4-10.1 1.4zm-3.3 0q-7.5 0-12.9-2.4-5.4-2.4-8.3-6.8-2.9-4.6-2.9-10.7 0-5.8 2.7-10.2 2.6-4.6 8-7.6 5.6-3 13.8-4.3l21-3.4v13.9l-17.6 3.1q-4.1 0.8-6.2 2.7-2.2 1.7-2.2 5.1 0 3.2 2.4 5 2.4 1.7 6 1.7 4.6 0 8.1-2 3.6-2 5.5-5.4 2-3.5 2-7.7v-17.9q0-3.9-3.2-6.5-3-2.7-8.3-2.7-5 0-8.9 2.8-3.8 2.8-5.6 7.3l-15.1-7.2q2-5.8 6.4-9.9 4.4-4.2 10.6-6.5 6.2-2.2 13.5-2.2 8.7 0 15.4 3.1 6.6 3.2 10.3 8.8 3.8 5.6 3.8 13v45.4h-17.7v-11.1l4.3-0.8q-3 4.6-6.7 7.6-3.6 2.9-8.1 4.4-4.6 1.4-10.1 1.4z"/>
	<path id="Abaloria Bendita." class="s1" aria-label="Abaloria Bendita."  d="m380.7 189.5q-10.2 0-18.6-4.7-8.3-4.6-13.4-12.7-4.9-8.2-4.9-18.5 0-10.5 4.9-18.5 5.1-8.1 13.4-12.7 8.4-4.7 18.6-4.7 10.2 0 18.6 4.7 8.3 4.6 13.2 12.7 5 8 5 18.5 0 10.3-5 18.5-4.9 8.1-13.2 12.7-8.4 4.7-18.6 4.7zm0-17q5.2 0 9-2.4 3.9-2.4 6-6.7 2.3-4.3 2.3-9.8 0-5.5-2.3-9.7-2.1-4.3-6-6.7-3.8-2.5-9-2.5-5.1 0-9 2.5-3.9 2.4-6.2 6.7-2.2 4.2-2.2 9.7 0 5.5 2.2 9.8 2.3 4.3 6.2 6.7 3.9 2.4 9 2.4zm-3.3 17q-10.2 0-18.6-4.7-8.3-4.6-13.4-12.7-4.9-8.2-4.9-18.5 0-10.5 4.9-18.5 5.1-8.1 13.4-12.7 8.4-4.7 18.6-4.7 10.2 0 18.5 4.7 8.4 4.6 13.3 12.7 5 8 5 18.5 0 10.3-5 18.5-4.9 8.1-13.3 12.7-8.3 4.7-18.5 4.7zm0-17q5.2 0 9-2.4 3.9-2.4 6-6.7 2.3-4.3 2.3-9.8 0-5.5-2.3-9.7-2.1-4.3-6-6.7-3.8-2.5-9-2.5-5.2 0-9.1 2.5-3.9 2.4-6.1 6.7-2.2 4.2-2.2 9.7 0 5.5 2.2 9.8 2.2 4.3 6.1 6.7 3.9 2.4 9.1 2.4z"/>
	<path id="Abaloria Bendita." class="s2" aria-label="Abaloria Bendita."  d="m627.9 188h37.3c19 0 30-9.2 30-24.9 0-10.8-5-18.1-14.7-21.2 8.7-3.7 13.3-11 13.3-21.2 0-15.4-11.1-24.8-29.3-24.8h-36.6zm35.2-77.9c9.1 0 14.2 4.3 14.2 12.2 0 8.2-5 12.9-13.8 12.9h-19.5v-25.1zm1.4 38.7c8.9 0 14.1 4.4 14.1 12.2 0 8.3-5 12.8-14.1 12.8h-20.6v-25zm-39.9 39.2h37.3c19 0 29.9-9.2 29.9-25 0-10.7-4.9-18-14.6-21.1 8.7-3.7 13.3-11 13.3-21.2 0-15.4-11.1-24.8-29.3-24.8h-36.6zm35.2-77.9c9.1 0 14.1 4.3 14.1 12.2 0 8.2-4.9 12.9-13.7 12.9h-19.5v-25.1zm1.4 38.7c8.9 0 14.1 4.4 14.1 12.2 0 8.3-5.1 12.7-14.1 12.7h-20.6v-24.9z"/>
	<path id="Abaloria Bendita." class="s3" aria-label="Abaloria Bendita."  d="m1141.4 188.7c6 0 9.9-3.5 9.9-9.5 0-5.5-3.5-9.6-9.9-9.6-6 0-10 3.8-10 9.6 0 5.4 3.6 9.5 10 9.5zm-4 0c5.9 0 9.8-3.5 9.8-9.5 0-5.5-3.4-9.6-9.8-9.6-6 0-10 3.8-10 9.6 0 5.4 3.5 9.5 10 9.5z"/>
</svg>