<svg version="1.2" xmlns="http://www.w3.org/2000/svg" viewBox="0 0 1200 260" width="1200" height="260">
	<style>
		.s0 { fill: #000000 } 
		.s1 { fill: #c43a2b } 
		.s2 { fill: #6fa8d6 } 
		.s3 { fill: #d4b72a } 
	</style>
	<path id="Abaloria Bendita." class="s0" aria-label="Abaloria Bendita."  d="m63.2 188h-21.2l31.8-104.3h26l31.7 104.3h-21.3l-6.3-21.3h-34.4zm26.2-89.4l-14.5 49.2h23.6l-14.4-49.2zm-29.5 89.4h-21.2l31.8-104.3h25.9l31.8 104.3h-21.3l-6.3-21.3h-34.4zm26.2-89.4l-14.5 49.3h23.6l-14.4-49.3zm96.1 91.1q-7.1 0-13.1-2.8-6-2.9-9.6-8.5l1.7-4.4v14h-17.6v-105.9h18.9v44.1l-2.9-4.2q3.4-5.8 9.2-8.9 5.9-3.2 13.5-3.2 9.8 0 17.8 5.3 7.9 5.4 12.6 14.5 4.6 8.9 4.6 20.1 0 11.1-4.6 20.2-4.6 9.1-12.5 14.4-8 5.3-18 5.3zm-2.3-18.9q5.3 0 9.3-2.6 4.1-2.7 6.3-7.5 2.3-4.7 2.3-10.9 0-6.1-2.3-10.8-2.2-4.7-6.3-7.4-4-2.8-9.3-2.8-5 0-9.1 2.7-3.9 2.6-6.2 7.4-2.1 4.8-2.1 10.9 0 6.2 2.1 10.9 2.3 4.8 6.2 7.5 4.1 2.6 9.1 2.6zm-1.1 18.9q-7 0-13.1-2.8-5.9-2.9-9.5-8.5l1.7-4.4v14h-17.6v-105.9h18.9v44.1l-2.9-4.2q3.4-5.8 9.2-8.9 5.9-3.2 13.5-3.2 9.8 0 17.7 5.3 8 5.4 12.6 14.5 4.7 8.9 4.7 20.1 0 11.1-4.7 20.2-4.5 9.1-12.4 14.4-8 5.3-18.1 5.3zm-2.2-18.9q5.3 0 9.3-2.6 4-2.7 6.3-7.5 2.3-4.7 2.3-10.9 0-6.1-2.3-10.8-2.3-4.7-6.3-7.4-4-2.8-9.3-2.8-5.1 0-9.1 2.7-3.9 2.6-6.2 7.4-2.1 4.8-2.1 10.9 0 6.2 2.1 10.9 2.3 4.8 6.2 7.5 4 2.6 9.1 2.6zm77.3 18.9q-7.4 0-12.9-2.6-5.4-2.7-8.3-7.6-2.9-5-2.9-11.9 0-6.4 2.7-11.3 2.6-5.1 8-8.4 5.6-3.4 13.8-4.8l21-3.8v15.4l-17.6 3.5q-4.1 0.9-6.2 3-2.1 1.9-2.1 5.7 0 3.5 2.4 5.5 2.4 1.9 5.9 1.9 4.6 0 8.2-2.2 3.5-2.3 5.4-6 2-4 2-8.6v-19.9q0-4.3-3.1-7.2-3.1-3-8.4-3-5 0-8.9 3.1-3.8 3.1-5.6 8.1l-15.1-8q2-6.4 6.5-11 4.4-4.6 10.5-7.2 6.2-2.5 13.5-2.5 8.7 0 15.4 3.5 6.7 3.5 10.3 9.8 3.8 6.2 3.8 14.4v50.4h-17.6v-12.3l4.2-0.8q-3 5-6.6 8.4-3.7 3.2-8.2 4.9-4.6 1.5-10.1 1.5zm-3.3 0q-7.5 0-12.9-2.6-5.4-2.7-8.3-7.6-2.9-5-2.9-11.9 0-6.4 2.7-11.3 2.6-5.1 8-8.4 5.6-3.4 13.8-4.8l21-3.8v15.4l-17.6 3.5q-4.1 0.9-6.2 3-2.2 1.9-2.2 5.7 0 3.5 2.4 5.5 2.4 1.9 6 1.9 4.6 0 8.1-2.2 3.6-2.3 5.5-6 2-4 2-8.6v-19.9q0-4.3-3.2-7.2-3-3-8.3-3-5 0-8.9 3.1-3.8 3.1-5.6 8.1l-15.1-8q2-6.4 6.4-11 4.4-4.6 10.6-7.2 6.2-2.5 13.5-2.5 8.7 0 15.4 3.5 6.6 3.5 10.3 9.8 3.8 6.2 3.8 14.4v50.4h-17.7v-12.3l4.3-0.8q-3 5-6.7 8.4-3.6 3.2-8.1 4.9-4.6 1.5-10.1 1.5zm77.9-1.7h-18.9v-105.9h18.9zm-3.3 0h-18.9v-106h18.9zm125.3 0h-18.9v-76.5h17.6v18.4l-1.2-2.7q2.3-9.6 7.4-13 5.3-3.5 12.5-3.5h4v18.2h-5.9q-6.9 0-11.2 4.8-4.3 4.6-4.3 13.1zm-3.3 0h-18.9v-76.4h17.6v18.3l-1.2-2.6q2.2-9.7 7.4-13.1 5.3-3.5 12.5-3.5h4v18.2h-5.9q-6.9 0-11.2 4.8-4.3 4.6-4.3 13.2zm56.3 0h-18.9v-76.5h18.9zm0-83.3h-18.9v-21h18.9zm-3.3 83.3h-18.9v-76.4h18.9zm0-83.3h-18.9v-21h18.9zm41.7 85q-7.4 0-12.9-2.7-5.4-2.7-8.3-7.6-2.9-5-2.9-11.9 0-6.4 2.7-11.3 2.6-5 8-8.4 5.6-3.4 13.8-4.8l21-3.7v15.4l-17.6 3.5q-4.1 0.8-6.2 2.9-2.1 2-2.1 5.7 0 3.5 2.4 5.5 2.4 2 5.9 2 4.6 0 8.2-2.3 3.5-2.2 5.4-6 2-3.9 2-8.5v-19.9q0-4.4-3.1-7.3-3.1-2.9-8.4-2.9-5 0-8.9 3-3.8 3.1-5.6 8.2l-15.1-8q2-6.5 6.5-11.1 4.4-4.6 10.5-7.1 6.2-2.5 13.5-2.5 8.7 0 15.4 3.5 6.7 3.5 10.3 9.8 3.8 6.1 3.8 14.4v50.4h-17.6v-12.3l4.2-0.9q-3 5.1-6.6 8.4-3.7 3.2-8.2 4.9-4.6 1.6-10.1 1.6zm-3.3 0q-7.5 0-12.9-2.7-5.4-2.7-8.3-7.6-2.9-5-2.9-11.9 0-6.4 2.7-11.3 2.6-5 8-8.4 5.6-3.4 13.8-4.8l21-3.7v15.4l-17.6 3.5q-4.1 0.8-6.2 2.9-2.2 2-2.2 5.7 0 3.5 2.4 5.5 2.4 2 6 2 4.6 0 8.1-2.3 3.6-2.2 5.5-6 2-3.9 2-8.5v-19.9q0-4.4-3.2-7.3-3-2.9-8.3-2.9-5 0-8.9 3-3.8 3.1-5.6 8.2l-15.1-8q2-6.5 6.4-11.1 4.4-4.6 10.6-7.1 6.2-2.5 13.5-2.5 8.7 0 15.4 3.5 6.6 3.5 10.3 9.8 3.8 6.1 3.8 14.4v50.4h-17.7v-12.3l4.3-0.9q-3 5.1-6.7 8.4-3.6 3.2-8.1 4.9-4.6 1.6-10.1 1.6zm205.1 0q-10.9 0-19-5.4-8-5.4-12.5-14.5-4.4-9.1-4.4-20.2 0-11.5 4.6-20.4 4.6-9 12.4-14.2 7.9-5.1 17.7-5.1 8.2 0 14.5 2.9 6.3 2.8 10.6 8 4.4 5.2 6.6 12 2.3 6.7 2.3 14.7 0 2.3-0.2 4.5-0.2 2.1-0.7 3.6h-51.5v-15.4h40.8l-8.9 7.3q1.2-6-0.2-10.6-1.3-4.8-4.9-7.4-3.4-2.8-8.4-2.8-4.9 0-8.5 2.6-3.5 2.7-5.2 7.9-1.8 5.1-1.4 12.6-0.5 6.4 1.4 11.3 1.8 4.9 5.7 7.7 4 2.7 9.5 2.7 5 0 8.6-2.3 3.6-2.2 5.6-6.1l15.2 7.9q-2.1 5.6-6.5 9.8-4.3 4.2-10.2 6.6-5.9 2.3-13 2.3zm-3.3 0q-10.9 0-19-5.4-8.1-5.4-12.5-14.5-4.4-9.1-4.4-20.2 0-11.5 4.5-20.4 4.7-9 12.5-14.2 7.8-5.1 17.7-5.1 8.2 0 14.5 2.9 6.3 2.8 10.5 8 4.4 5.2 6.7 12 2.3 6.7 2.3 14.7 0 2.3-0.3 4.5-0.1 2.1-0.6 3.6h-51.5v-15.4h40.8l-9 7.3q1.3-6-0.1-10.6-1.4-4.8-4.9-7.4-3.4-2.8-8.4-2.8-5 0-8.5 2.6-3.5 2.7-5.3 7.9-1.7 5.1-1.4 12.6-0.5 6.4 1.4 11.3 1.9 4.9 5.8 7.7 3.9 2.7 9.5 2.7 5 0 8.5-2.3 3.7-2.2 5.7-6.1l15.1 7.9q-2 5.6-6.4 9.8-4.3 4.2-10.2 6.6-5.9 2.3-13 2.3zm70.1-1.7h-18.9v-76.5h17.6v15.2l-1-3.4q2.4-6.9 7.7-10.1 5.4-3.3 12.6-3.3 7.8 0 13.6 3.6 6 3.6 9.2 10.2 3.3 6.5 3.3 15.1v49.2h-18.9v-44.7q0-4.5-1.6-7.7-1.5-3.2-4.4-5-2.8-1.8-6.6-1.8-3.6 0-6.5 1.8-2.9 1.8-4.6 5-1.5 3.2-1.5 7.7zm-3.3 0h-18.9v-76.4h17.6v15.1l-1-3.4q2.4-6.8 7.7-10 5.4-3.4 12.6-3.4 7.8 0 13.6 3.6 5.9 3.7 9.2 10.3 3.3 6.4 3.3 15.1v49.1h-18.9v-44.6q0-4.5-1.7-7.7-1.5-3.3-4.4-5.1-2.7-1.8-6.5-1.8-3.7 0-6.6 1.8-2.9 1.8-4.5 5.1-1.5 3.2-1.5 7.7zm95.8 1.6q-10.1 0-18-5.3-8-5.3-12.6-14.4-4.6-9.1-4.6-20.2 0-11.2 4.7-20.1 4.7-9.1 12.6-14.4 7.9-5.4 17.8-5.4 7.5 0 13.3 3.3 5.9 3 9.3 8.8l-2.9 4.2v-44.1h18.9v106h-17.6v-14l1.8 4.3q-3.6 5.6-9.6 8.5-6.1 2.8-13.1 2.8zm2.3-18.9q5.1 0 9-2.6 3.9-2.7 6.1-7.4 2.2-4.8 2.2-11 0-6.1-2.2-10.9-2.2-4.7-6.1-7.4-3.9-2.7-9-2.7-5.2 0-9.4 2.8-4 2.7-6.3 7.5-2.2 4.6-2.2 10.7 0 6.2 2.2 11 2.3 4.7 6.3 7.4 4.2 2.6 9.4 2.6zm-5.6 18.9q-10.1 0-18.1-5.3-7.9-5.3-12.6-14.4-4.5-9.1-4.5-20.2 0-11.2 4.7-20.1 4.6-9.1 12.6-14.4 7.9-5.4 17.7-5.4 7.6 0 13.4 3.3 5.9 3 9.3 8.8l-2.9 4.2v-44.1h18.9v106h-17.6v-14l1.7 4.3q-3.5 5.6-9.5 8.5-6.1 2.8-13.1 2.8zm2.2-18.9q5.2 0 9.1-2.6 3.9-2.7 6.1-7.4 2.2-4.8 2.2-11 0-6.1-2.2-10.9-2.2-4.7-6.1-7.4-3.9-2.7-9.1-2.7-5.1 0-9.3 2.8-4 2.7-6.3 7.5-2.3 4.6-2.3 10.7 0 6.2 2.3 11 2.3 4.7 6.3 7.4 4.2 2.6 9.3 2.6zm75.6 17.3h-18.9v-76.5h18.9zm0-83.3h-18.9v-21h18.9zm-3.3 83.3h-18.9v-76.4h18.9zm0-83.3h-18.9v-21h18.9zm54.5 84.1q-12.4 0-19.4-7.4-6.8-7.6-6.8-21v-30.7h-11.6v-18.2h0.7q5.3 0 8-2.9 2.9-2.9 2.9-8.8v-5.6h18.9v17.3h16.2v18.2h-16.2v29.3q0 3.9 1.3 6.6 1.3 2.5 3.9 3.8 2.6 1.2 6.6 1.2 0.8 0 2-0.1 1.1-0.2 2.4-0.3v17.8q-1.9 0.3-4.3 0.5-2.4 0.3-4.6 0.3zm-3.3 0q-12.5 0-19.4-7.4-6.8-7.6-6.8-21v-30.7h-11.6v-18.2h0.7q5.2 0 8-2.9 2.9-2.9 2.9-8.8v-5.6h18.9v17.3h16.1v18.2h-16.1v29.3q0 3.9 1.3 6.6 1.2 2.5 3.9 3.8 2.6 1.2 6.5 1.2 0.9 0 2-0.1 1.2-0.2 2.4-0.3v17.8q-1.8 0.3-4.2 0.5-2.4 0.3-4.6 0.3zm48.5 0.9q-7.4 0-12.9-2.7-5.4-2.7-8.3-7.6-2.9-5-2.9-11.9 0-6.4 2.7-11.3 2.6-5 8-8.4 5.6-3.4 13.8-4.8l21-3.7v15.4l-17.6 3.5q-4.1 0.8-6.2 2.9-2.1 2-2.1 5.7 0 3.5 2.4 5.5 2.4 2 5.9 2 4.6 0 8.2-2.3 3.5-2.2 5.4-6 2-3.9 2-8.5v-19.9q0-4.4-3.1-7.3-3.1-2.9-8.4-2.9-5 0-8.9 3-3.8 3.1-5.6 8.2l-15.1-8q2-6.5 6.5-11.1 4.4-4.6 10.5-7.1 6.2-2.5 13.5-2.5 8.7 0 15.4 3.5 6.7 3.5 10.3 9.8 3.8 6.1 3.8 14.4v50.4h-17.6v-12.3l4.2-0.9q-3 5.1-6.6 8.4-3.7 3.2-8.2 4.9-4.6 1.6-10.1 1.6zm-3.3 0q-7.5 0-12.9-2.7-5.4-2.7-8.3-7.6-2.9-5-2.9-11.9 0-6.4 2.7-11.3 2.6-5 8-8.4 5.6-3.4 13.8-4.8l21-3.7v15.4l-17.6 3.5q-4.1 0.8-6.2 2.9-2.2 2-2.2 5.7 0 3.5 2.4 5.5 2.4 2 6 2 4.6 0 8.1-2.3 3.6-2.2 5.5-6 2-3.9 2-8.5v-19.9q0-4.4-3.2-7.3-3-2.9-8.3-2.9-5 0-8.9 3-3.8 3.1-5.6 8.2l-15.1-8q2-6.5 6.4-11.1 4.4-4.6 10.6-7.1 6.2-2.5 13.5-2.5 8.7 0 15.4 3.5 6.6 3.5 10.3 9.8 3.8 6.1 3.8 14.4v50.4h-17.7v-12.3l4.3-0.9q-3 5.1-6.7 8.4-3.6 3.2-8.1 4.9-4.6 1.6-10.1 1.6z"/>
	<path id="Abaloria Bendita." class="s1" aria-label="Abaloria Bendita."  d="m380.7 189.7q-10.2 0-18.6-5.2-8.3-5.2-13.4-14.1-4.9-9.1-4.9-20.6 0-11.6 4.9-20.6 5.1-9 13.4-14.1 8.4-5.2 18.6-5.2 10.2 0 18.6 5.2 8.3 5.1 13.2 14.1 5 9 5 20.6 0 11.5-5 20.6-4.9 8.9-13.2 14.1-8.4 5.2-18.6 5.2zm0-18.9q5.2 0 9-2.7 3.9-2.6 6-7.4 2.3-4.8 2.3-10.9 0-6.2-2.3-10.8-2.1-4.8-6-7.4-3.8-2.8-9-2.8-5.1 0-9 2.8-3.9 2.6-6.2 7.4-2.2 4.6-2.2 10.8 0 6.1 2.2 10.9 2.3 4.8 6.2 7.4 3.9 2.7 9 2.7zm-3.3 18.9q-10.2 0-18.6-5.2-8.3-5.2-13.4-14.1-4.9-9.1-4.9-20.6 0-11.6 4.9-20.6 5.1-9 13.4-14.1 8.4-5.2 18.6-5.2 10.2 0 18.5 5.2 8.4 5.1 13.3 14.1 5 9 5 20.6 0 11.5-5 20.6-4.9 8.9-13.3 14.1-8.3 5.2-18.5 5.2zm0-18.9q5.2 0 9-2.7 3.9-2.6 6-7.4 2.3-4.8 2.3-10.9 0-6.2-2.3-10.8-2.1-4.8-6-7.4-3.8-2.8-9-2.8-5.2 0-9.1 2.8-3.9 2.6-6.1 7.4-2.2 4.6-2.2 10.8 0 6.1 2.2 10.9 2.2 4.8 6.1 7.4 3.9 2.7 9.1 2.7z"/>
	<path id="Abaloria Bendita." class="s2" aria-label="Abaloria Bendita."  d="m627.9 188h37.3c19 0 30-10.2 30-27.7 0-11.9-5-20-14.7-23.5 8.7-4.1 13.3-12.2 13.3-23.6 0-17-11.1-27.5-29.3-27.5h-36.6zm35.2-86.6c9.1 0 14.2 4.8 14.2 13.6 0 9.1-5 14.3-13.8 14.3h-19.5v-27.9zm1.4 43c8.9 0 14.1 4.9 14.1 13.6 0 9.2-5 14.1-14.1 14.1h-20.6v-27.7zm-39.9 43.6h37.3c19 0 29.9-10.3 29.9-27.8 0-11.9-4.9-20-14.6-23.5 8.7-4 13.3-12.2 13.3-23.5 0-17.1-11.1-27.6-29.3-27.6h-36.6zm35.2-86.5c9.1 0 14.1 4.8 14.1 13.6 0 9.1-4.9 14.3-13.7 14.3h-19.5v-27.9zm1.4 43c8.9 0 14.1 4.9 14.1 13.6 0 9.2-5.1 14.1-14.1 14.1h-20.6v-27.7z"/>
	<path id="Abaloria Bendita." class="s3" aria-label="Abaloria Bendita."  d="m1141.4 188.8c6 0 9.9-4 9.9-10.6 0-6.1-3.5-10.6-9.9-10.6-6 0-10 4.1-10 10.6 0 6 3.6 10.6 10 10.6zm-4 0c5.9 0 9.8-4 9.8-10.6 0-6.1-3.4-10.6-9.8-10.6-6 0-10 4.1-10 10.6 0 6 3.5 10.6 10 10.6z"/>
</svg>